<?xml version="1.0" encoding="UTF-8" standalone="no"?>
<!-- Created with Inkscape (http://www.inkscape.org/) -->

<svg
   xmlns:dc="http://purl.org/dc/elements/1.1/"
   xmlns:cc="http://creativecommons.org/ns#"
   xmlns:rdf="http://www.w3.org/1999/02/22-rdf-syntax-ns#"
   xmlns:svg="http://www.w3.org/2000/svg"
   xmlns="http://www.w3.org/2000/svg"
   xmlns:sodipodi="http://sodipodi.sourceforge.net/DTD/sodipodi-0.dtd"
   xmlns:inkscape="http://www.inkscape.org/namespaces/inkscape"
   width="256.00006"
   height="256"
   id="svg5036"
   version="1.1"
   inkscape:version="0.48.4 r9939"
   sodipodi:docname="New document 20">
  <defs
     id="defs5038" />
  <sodipodi:namedview
     id="base"
     pagecolor="#ffffff"
     bordercolor="#666666"
     borderopacity="1.0"
     inkscape:pageopacity="0.0"
     inkscape:pageshadow="2"
     inkscape:zoom="0.35"
     inkscape:cx="-725.5714"
     inkscape:cy="-110.28571"
     inkscape:document-units="px"
     inkscape:current-layer="layer1"
     showgrid="false"
     fit-margin-top="0"
     fit-margin-left="0"
     fit-margin-right="0"
     fit-margin-bottom="0"
     inkscape:window-width="1944"
     inkscape:window-height="1211"
     inkscape:window-x="0"
     inkscape:window-y="113"
     inkscape:window-maximized="0" />
  <metadata
     id="metadata5041">
    <rdf:RDF>
      <cc:Work
         rdf:about="">
        <dc:format>image/svg+xml</dc:format>
        <dc:type
           rdf:resource="http://purl.org/dc/dcmitype/StillImage" />
        <dc:title></dc:title>
      </cc:Work>
    </rdf:RDF>
  </metadata>
  <g
     inkscape:label="Layer 1"
     inkscape:groupmode="layer"
     id="layer1"
     transform="translate(-740.5714,-446.07647)">
    <g
       id="g3948"
       transform="translate(293.84394,-108.24944)">
      <g
         id="g3950"
         style="fill:#0000ff">
        <rect
           style="opacity:0.44212964;fill:#0000ff;stroke:none"
           id="rect3952"
           width="143.10835"
           height="143.10835"
           x="-584.68945"
           y="1084.146"
           transform="matrix(0.89442719,-0.4472136,0.89442719,0.4472136,0,0)" />
        <path
           inkscape:connector-curvature="0"
           id="path3954"
           d="m 542.71875,698.3125 -32,16 32,16 32,-16 -32,-16 z m 32,16 32,16 32,-16 -32,-16 -32,16 z"
           style="opacity:0.44212964;fill:#0000ff;stroke:none" />
        <rect
           transform="matrix(0.89442719,-0.4472136,0.89442719,0.4472136,0,0)"
           y="1191.4773"
           x="-477.35822"
           height="35.777088"
           width="35.777088"
           id="rect3956"
           style="opacity:0.44212964;fill:#0000ff;stroke:none" />
        <rect
           style="opacity:0.44212964;fill:#0000ff;stroke:none"
           id="rect3958"
           width="35.777088"
           height="35.777088"
           x="-584.68951"
           y="1084.146"
           transform="matrix(0.89442719,-0.4472136,0.89442719,0.4472136,0,0)" />
        <path
           id="path3960"
           d="m 542.71875,730.3125 -32,16 32,16 32,-16 -32,-16 z m 32,16 32,16 32,-16 -32,-16 -32,16 z"
           style="opacity:0.44212964;fill:#0000ff;stroke:none"
           inkscape:connector-curvature="0" />
        <path
           style="opacity:0.44212964;fill:#0000ff;stroke:none"
           d="m 542.71875,762.41601 -32,16 32,16 32,-16 -32,-16 z m 32,16 32,16 32,-16 -32,-16 -32,16 z"
           id="path3962"
           inkscape:connector-curvature="0" />
      </g>
    </g>
  </g>
</svg>
