<?xml version="1.0" encoding="UTF-8" standalone="no"?><!DOCTYPE svg PUBLIC "-//W3C//DTD SVG 1.1//EN" "http://www.w3.org/Graphics/SVG/1.1/DTD/svg11.dtd"><svg width="100%" height="100%" viewBox="0 0 384 512" version="1.1" xmlns="http://www.w3.org/2000/svg" xmlns:xlink="http://www.w3.org/1999/xlink" xml:space="preserve" xmlns:serif="http://www.serif.com/" style="fill-rule:evenodd;clip-rule:evenodd;stroke-linejoin:round;stroke-miterlimit:2;"><g id="Layer-1" serif:id="Layer 1"><g><path d="M160.349,223.781l-0.132,0" style="fill:none;"/><path d="M191.837,208.771c0.043,0.022 0.086,0.043 0.129,0.065" style="fill:none;"/><path d="M96.349,223.781l-0.132,0" style="fill:none;"/><path d="M143.837,142.771c0.043,0.022 0.086,0.043 0.129,0.065" style="fill:none;"/><path d="M-0.143,448l128,64l256,-128l-128,-64l-256,128Z" style="fill:#f0ebe5;"/><g><path d="M7.857,448l0,-128l118,60l0,128l-118,-60Z" style="fill:#60c;"/><path d="M123.857,510l4,2l0,-128l-4,-2l0,128Z" style="fill:#f44800;"/><path d="M-0.143,448l4,2l0,-128l-4,-2l0,128Z" style="fill:#f44800;"/><path d="M3.857,450l4,-2l0,-128l-4,2l0,128Z" style="fill:#fb8b00;"/></g><g><path d="M7.857,320l0,-88l116,58l2,90l-118,-60Z" style="fill:#60c;"/><path d="M123.857,382l4,2l0,-128l-4,-2l0,128Z" style="fill:#f44800;"/><path d="M-0.143,320l4,2l0,-128l-4,-2l0,128Z" style="fill:#f44800;"/><path d="M3.857,322l4,-2l0,-88l-4,-2l0,92Z" style="fill:#fb8b00;"/><path d="M3.857,230l120,60l0,-36l-120,-60l0,36Z" style="fill:#f44800;"/></g><path d="M127.857,384l0,128l256,-128l0,-128l-256,128Z" style="fill:#fb8b00;"/><path d="M127.857,256l0,128l256,-128l0,-128l-256,128Z" style="fill:#fb8b00;"/><path d="M-0.143,192l128,64l256,-128l-128,-64l-256,128Z" style="fill:#f0a513;"/></g></g></svg>