<?xml version="1.0" encoding="UTF-8" standalone="no"?>
<!-- Created with Inkscape (http://www.inkscape.org/) -->

<svg
   xmlns:dc="http://purl.org/dc/elements/1.1/"
   xmlns:cc="http://creativecommons.org/ns#"
   xmlns:rdf="http://www.w3.org/1999/02/22-rdf-syntax-ns#"
   xmlns:svg="http://www.w3.org/2000/svg"
   xmlns="http://www.w3.org/2000/svg"
   xmlns:xlink="http://www.w3.org/1999/xlink"
   xmlns:sodipodi="http://sodipodi.sourceforge.net/DTD/sodipodi-0.dtd"
   xmlns:inkscape="http://www.inkscape.org/namespaces/inkscape"
   width="59.592731"
   height="214.22212"
   id="svg2"
   version="1.1"
   inkscape:version="0.48.4 r9939"
   inkscape:export-filename="out.png"
   inkscape:export-xdpi="95.982178"
   inkscape:export-ydpi="95.982178"
   sodipodi:docname="New document 1">
  <defs
     id="defs4">
    <pattern
       id="pattern9481"
       patternTransform="translate(642.125,682.9375)"
       height="12.332352"
       width="16.112808"
       patternUnits="userSpaceOnUse">
      <g
         transform="translate(-642.125,-682.9375)"
         id="g9471">
        <path
           inkscape:connector-curvature="0"
           id="path9357"
           d="m 644.05132,692.88408 c -0.82018,3.34884 6.24614,1.03581 3.5355,-0.53031"
           style="fill:#338000;stroke:#44aa00;stroke-width:1px;stroke-linecap:butt;stroke-linejoin:miter;stroke-opacity:1" />
        <path
           inkscape:connector-curvature="0"
           id="path9359"
           d="m 651.27402,690.05592 c -0.40582,4.07887 5.63959,1.53706 5.3055,-1.22816"
           style="fill:#338000;stroke:#44aa00;stroke-width:1px;stroke-linecap:butt;stroke-linejoin:miter;stroke-opacity:1" />
        <path
           inkscape:connector-curvature="0"
           id="path9361"
           d="m 650.59206,693.23764 c -0.50865,0.9845 1.73993,2.48416 1.59086,0.7071"
           style="fill:#338000;stroke:#44aa00;stroke-width:1px;stroke-linecap:butt;stroke-linejoin:miter;stroke-opacity:1" />
        <path
           inkscape:connector-curvature="0"
           id="path9363"
           d="m 647.23331,688.28789 c 1.43976,0.43875 4.13025,1.92663 4.77302,-0.35319"
           style="fill:#338000;stroke:#44aa00;stroke-width:1px;stroke-linecap:butt;stroke-linejoin:miter;stroke-opacity:1" />
        <path
           inkscape:connector-curvature="0"
           id="path9365"
           d="m 649.35463,683.33814 c 0.77018,3.26987 7.23331,3.17263 6.0102,0.17687"
           style="fill:#338000;stroke:#44aa00;stroke-width:1px;stroke-linecap:butt;stroke-linejoin:miter;stroke-opacity:1" />
        <path
           inkscape:connector-curvature="0"
           id="path9367"
           d="m 642.63711,682.98459 c 0.22082,2.35242 4.72733,4.05454 4.61776,0.5795"
           style="fill:#338000;stroke:#44aa00;stroke-width:1px;stroke-linecap:butt;stroke-linejoin:miter;stroke-opacity:1" />
        <path
           inkscape:connector-curvature="0"
           id="path9369"
           d="m 642.81389,689.34855 c 0.89464,2.74916 5.49895,3.20638 5.83367,-0.17677"
           style="fill:#338000;stroke:#44aa00;stroke-width:1px;stroke-linecap:butt;stroke-linejoin:miter;stroke-opacity:1" />
        <path
           inkscape:connector-curvature="0"
           id="path9371"
           d="m 653.95082,686.87367 c 0.51726,3.62614 4.82331,0.20921 3.60022,-2.12022 0.0373,-0.1182 0.0746,-0.23641 0.11193,-0.35461"
           style="fill:#338000;stroke:#44aa00;stroke-width:1px;stroke-linecap:butt;stroke-linejoin:miter;stroke-opacity:1" />
      </g>
    </pattern>
    <linearGradient
       y2="560.22156"
       x2="153.32825"
       y1="560.22156"
       x1="152.77092"
       gradientUnits="userSpaceOnUse"
       id="linearGradient7715"
       xlink:href="#linearGradient4802"
       inkscape:collect="always" />
    <linearGradient
       y2="560.22156"
       x2="153.32825"
       y1="560.22156"
       x1="152.77092"
       gradientUnits="userSpaceOnUse"
       id="linearGradient7713"
       xlink:href="#linearGradient4802"
       inkscape:collect="always" />
    <linearGradient
       y2="560.22156"
       x2="153.32825"
       y1="560.22156"
       x1="152.77092"
       gradientUnits="userSpaceOnUse"
       id="linearGradient7711"
       xlink:href="#linearGradient4802"
       inkscape:collect="always" />
    <linearGradient
       y2="560.22156"
       x2="153.32825"
       y1="560.22156"
       x1="152.77092"
       gradientUnits="userSpaceOnUse"
       id="linearGradient7709"
       xlink:href="#linearGradient4802"
       inkscape:collect="always" />
    <linearGradient
       y2="560.22156"
       x2="153.32825"
       y1="560.22156"
       x1="152.77092"
       gradientUnits="userSpaceOnUse"
       id="linearGradient7707"
       xlink:href="#linearGradient4802"
       inkscape:collect="always" />
    <linearGradient
       y2="560.22156"
       x2="153.32825"
       y1="560.22156"
       x1="152.77092"
       gradientUnits="userSpaceOnUse"
       id="linearGradient7705"
       xlink:href="#linearGradient4802"
       inkscape:collect="always" />
    <linearGradient
       y2="604.85803"
       x2="526"
       y1="524.60803"
       x1="517"
       gradientTransform="matrix(4,0,0,4,-1341.0403,-2370.0532)"
       gradientUnits="userSpaceOnUse"
       id="linearGradient7703"
       xlink:href="#linearGradient5449"
       inkscape:collect="always" />
    <linearGradient
       y2="651.22247"
       x2="674.18542"
       y1="598.01263"
       x1="623.08667"
       gradientTransform="matrix(4,0,0,4,-1341.0403,-2370.0532)"
       gradientUnits="userSpaceOnUse"
       id="linearGradient7701"
       xlink:href="#linearGradient5459"
       inkscape:collect="always" />
    <linearGradient
       inkscape:collect="always"
       id="linearGradient6723">
      <stop
         style="stop-color:#5a5a5a;stop-opacity:1"
         offset="0"
         id="stop6725" />
      <stop
         style="stop-color:#cccccf;stop-opacity:1"
         offset="1"
         id="stop6727" />
    </linearGradient>
    <linearGradient
       inkscape:collect="always"
       id="linearGradient6715">
      <stop
         style="stop-color:#888888;stop-opacity:1"
         offset="0"
         id="stop6717" />
      <stop
         style="stop-color:#eeeeee;stop-opacity:1"
         offset="1"
         id="stop6719" />
    </linearGradient>
    <linearGradient
       inkscape:collect="always"
       xlink:href="#linearGradient6715"
       id="linearGradient6721"
       x1="165.09557"
       y1="38.697247"
       x2="168.65883"
       y2="37.194645"
       gradientUnits="userSpaceOnUse" />
    <linearGradient
       inkscape:collect="always"
       xlink:href="#linearGradient6723"
       id="linearGradient6729"
       x1="167.26108"
       y1="41.304703"
       x2="169.27754"
       y2="35.824627"
       gradientUnits="userSpaceOnUse" />
    <linearGradient
       gradientTransform="matrix(4,0,0,4,-1341.0403,-2370.0532)"
       y2="651.22247"
       x2="674.18542"
       y1="598.01263"
       x1="623.08667"
       gradientUnits="userSpaceOnUse"
       id="linearGradient6512"
       xlink:href="#linearGradient5459"
       inkscape:collect="always" />
    <linearGradient
       gradientTransform="matrix(4,0,0,4,-1341.0403,-2370.0532)"
       y2="604.85803"
       x2="526"
       y1="524.60803"
       x1="517"
       gradientUnits="userSpaceOnUse"
       id="linearGradient6391"
       xlink:href="#linearGradient5449"
       inkscape:collect="always" />
    <linearGradient
       id="linearGradient5518">
      <stop
         id="stop5520"
         style="stop-color:#6600cc;stop-opacity:1"
         offset="0" />
      <stop
         id="stop5522"
         style="stop-color:#ff00ff;stop-opacity:1"
         offset="1" />
    </linearGradient>
    <linearGradient
       id="linearGradient4820">
      <stop
         id="stop4822"
         style="stop-color:#f44800;stop-opacity:1"
         offset="0" />
      <stop
         id="stop4824"
         style="stop-color:#fb8b00;stop-opacity:1"
         offset="1" />
    </linearGradient>
    <linearGradient
       id="linearGradient4767">
      <stop
         id="stop4769"
         style="stop-color:#6600cc;stop-opacity:1"
         offset="0" />
      <stop
         id="stop4771"
         style="stop-color:#ff00ff;stop-opacity:1"
         offset="1" />
    </linearGradient>
    <linearGradient
       x1="115"
       y1="160.81821"
       x2="140"
       y2="160.81821"
       id="linearGradient5425"
       xlink:href="#linearGradient4820"
       gradientUnits="userSpaceOnUse"
       gradientTransform="translate(257.03332,50)" />
    <linearGradient
       x1="100"
       y1="171"
       x2="155"
       y2="171"
       id="linearGradient5427"
       xlink:href="#linearGradient4820"
       gradientUnits="userSpaceOnUse"
       gradientTransform="translate(257.03332,50)" />
    <linearGradient
       x1="-124.91512"
       y1="214.2576"
       x2="-74.659973"
       y2="264.51276"
       id="linearGradient5429"
       xlink:href="#linearGradient4820"
       gradientUnits="userSpaceOnUse"
       gradientTransform="translate(87.370542,199.67938)" />
    <linearGradient
       x1="-150.8187"
       y1="279.17664"
       x2="-136.86674"
       y2="293.12857"
       id="linearGradient5431"
       xlink:href="#linearGradient4767"
       gradientUnits="userSpaceOnUse"
       gradientTransform="matrix(0.89593218,-0.44419087,0.89593218,0.44419087,257.03332,0)" />
    <linearGradient
       x1="115"
       y1="160.81821"
       x2="140"
       y2="160.81821"
       id="linearGradient5433"
       xlink:href="#linearGradient4820"
       gradientUnits="userSpaceOnUse"
       gradientTransform="translate(257.03332,0)" />
    <linearGradient
       x1="100"
       y1="171"
       x2="155"
       y2="171"
       id="linearGradient5435"
       xlink:href="#linearGradient4820"
       gradientUnits="userSpaceOnUse"
       gradientTransform="translate(257.03332,0)" />
    <linearGradient
       x1="-124.91512"
       y1="214.2576"
       x2="-74.659973"
       y2="264.51276"
       id="linearGradient5437"
       xlink:href="#linearGradient4820"
       gradientUnits="userSpaceOnUse"
       gradientTransform="translate(143.52496,143.52496)" />
    <linearGradient
       x1="115"
       y1="160.81821"
       x2="140"
       y2="160.81821"
       id="linearGradient5502"
       xlink:href="#linearGradient4820"
       gradientUnits="userSpaceOnUse"
       gradientTransform="translate(-33.538069,32.918513)" />
    <linearGradient
       x1="100"
       y1="171"
       x2="155"
       y2="171"
       id="linearGradient5504"
       xlink:href="#linearGradient4820"
       gradientUnits="userSpaceOnUse"
       gradientTransform="translate(-33.538069,32.918513)" />
    <linearGradient
       x1="-124.91512"
       y1="214.2576"
       x2="-74.659973"
       y2="264.51276"
       id="linearGradient5506"
       xlink:href="#linearGradient4820"
       gradientUnits="userSpaceOnUse"
       gradientTransform="matrix(0.89543071,-0.4452009,0.89543071,0.4452009,-33.538069,32.918511)" />
    <linearGradient
       x1="-124.91512"
       y1="214.2576"
       x2="-74.659973"
       y2="264.51276"
       id="linearGradient5509"
       xlink:href="#linearGradient4820"
       gradientUnits="userSpaceOnUse"
       gradientTransform="matrix(0.89543071,-0.4452009,0.89543071,0.4452009,-31.038069,38.918511)" />
    <linearGradient
       x1="115"
       y1="160.81821"
       x2="140"
       y2="160.81821"
       id="linearGradient5512"
       xlink:href="#linearGradient4820"
       gradientUnits="userSpaceOnUse"
       gradientTransform="translate(-31.038069,33.918513)" />
    <linearGradient
       x1="100"
       y1="171"
       x2="155"
       y2="171"
       id="linearGradient5514"
       xlink:href="#linearGradient4820"
       gradientUnits="userSpaceOnUse"
       gradientTransform="translate(-31.038069,33.918513)" />
    <linearGradient
       x1="85"
       y1="186"
       x2="110"
       y2="186"
       id="linearGradient5524"
       xlink:href="#linearGradient5518"
       gradientUnits="userSpaceOnUse"
       gradientTransform="translate(0,5)" />
    <linearGradient
       x1="-124.91512"
       y1="214.2576"
       x2="-74.659973"
       y2="264.51276"
       id="linearGradient3122"
       xlink:href="#linearGradient4820"
       gradientUnits="userSpaceOnUse"
       gradientTransform="matrix(0.89543071,-0.4452009,0.89543071,0.4452009,-31.038069,38.918511)" />
    <linearGradient
       x1="85"
       y1="186"
       x2="110"
       y2="186"
       id="linearGradient3124"
       xlink:href="#linearGradient5518"
       gradientUnits="userSpaceOnUse"
       gradientTransform="translate(0,5)" />
    <linearGradient
       x1="115"
       y1="160.81821"
       x2="140"
       y2="160.81821"
       id="linearGradient3126"
       xlink:href="#linearGradient4820"
       gradientUnits="userSpaceOnUse"
       gradientTransform="translate(-33.538069,32.918513)" />
    <linearGradient
       x1="100"
       y1="171"
       x2="155"
       y2="171"
       id="linearGradient3128"
       xlink:href="#linearGradient4820"
       gradientUnits="userSpaceOnUse"
       gradientTransform="translate(-33.538069,32.918513)" />
    <linearGradient
       x1="-124.91512"
       y1="214.2576"
       x2="-74.659973"
       y2="264.51276"
       id="linearGradient3130"
       xlink:href="#linearGradient4820"
       gradientUnits="userSpaceOnUse"
       gradientTransform="matrix(0.89543071,-0.4452009,0.89543071,0.4452009,-33.538069,32.918511)" />
    <linearGradient
       x1="85"
       y1="186"
       x2="110"
       y2="186"
       id="linearGradient3163"
       xlink:href="#linearGradient5518"
       gradientUnits="userSpaceOnUse"
       gradientTransform="translate(0,5)" />
    <linearGradient
       x1="-124.91512"
       y1="214.2576"
       x2="-74.659973"
       y2="264.51276"
       id="linearGradient3166"
       xlink:href="#linearGradient4820"
       gradientUnits="userSpaceOnUse"
       gradientTransform="matrix(0.89543071,-0.4452009,0.89543071,0.4452009,-31.038069,38.918511)" />
    <linearGradient
       inkscape:collect="always"
       xlink:href="#linearGradient4820"
       id="linearGradient3140"
       gradientUnits="userSpaceOnUse"
       gradientTransform="translate(-33.538069,32.918513)"
       x1="115"
       y1="160.81821"
       x2="140"
       y2="160.81821" />
    <linearGradient
       inkscape:collect="always"
       xlink:href="#linearGradient4820"
       id="linearGradient3142"
       gradientUnits="userSpaceOnUse"
       gradientTransform="translate(-33.538069,32.918513)"
       x1="100"
       y1="171"
       x2="155"
       y2="171" />
    <linearGradient
       inkscape:collect="always"
       xlink:href="#linearGradient4820"
       id="linearGradient3144"
       gradientUnits="userSpaceOnUse"
       gradientTransform="matrix(0.89543071,-0.4452009,0.89543071,0.4452009,-33.538069,32.918511)"
       x1="-124.91512"
       y1="214.2576"
       x2="-74.659973"
       y2="264.51276" />
    <linearGradient
       inkscape:collect="always"
       xlink:href="#linearGradient4820"
       id="linearGradient3147"
       gradientUnits="userSpaceOnUse"
       gradientTransform="matrix(0.89543071,-0.4452009,0.89543071,0.4452009,-236.03807,10.668511)"
       x1="-124.91512"
       y1="214.2576"
       x2="-74.659973"
       y2="264.51276" />
    <linearGradient
       inkscape:collect="always"
       xlink:href="#linearGradient4820"
       id="linearGradient3150"
       gradientUnits="userSpaceOnUse"
       gradientTransform="translate(-236.03807,10.668513)"
       x1="115"
       y1="160.81821"
       x2="140"
       y2="160.81821" />
    <linearGradient
       inkscape:collect="always"
       xlink:href="#linearGradient4820"
       id="linearGradient3152"
       gradientUnits="userSpaceOnUse"
       gradientTransform="translate(-236.03807,10.668513)"
       x1="100"
       y1="171"
       x2="155"
       y2="171" />
    <linearGradient
       inkscape:collect="always"
       xlink:href="#linearGradient5518"
       id="linearGradient3156"
       gradientUnits="userSpaceOnUse"
       gradientTransform="translate(-205,5)"
       x1="85"
       y1="186"
       x2="110"
       y2="186" />
    <linearGradient
       inkscape:collect="always"
       xlink:href="#linearGradient5518"
       id="linearGradient3161"
       gradientUnits="userSpaceOnUse"
       gradientTransform="translate(-205,25)"
       x1="85"
       y1="186"
       x2="110"
       y2="186" />
    <linearGradient
       inkscape:collect="always"
       xlink:href="#linearGradient5518"
       id="linearGradient3164"
       gradientUnits="userSpaceOnUse"
       gradientTransform="translate(-205,5)"
       x1="85"
       y1="186"
       x2="110"
       y2="186" />
    <linearGradient
       y2="560.22156"
       x2="153.32825"
       y1="560.22156"
       x1="152.77092"
       gradientUnits="userSpaceOnUse"
       id="linearGradient6052"
       xlink:href="#linearGradient4802"
       inkscape:collect="always" />
    <linearGradient
       y2="560.22156"
       x2="153.32825"
       y1="560.22156"
       x1="152.77092"
       gradientUnits="userSpaceOnUse"
       id="linearGradient6050"
       xlink:href="#linearGradient4802"
       inkscape:collect="always" />
    <linearGradient
       y2="560.22156"
       x2="153.32825"
       y1="560.22156"
       x1="152.77092"
       gradientUnits="userSpaceOnUse"
       id="linearGradient6048"
       xlink:href="#linearGradient4802"
       inkscape:collect="always" />
    <linearGradient
       y2="560.22156"
       x2="153.32825"
       y1="560.22156"
       x1="152.77092"
       gradientUnits="userSpaceOnUse"
       id="linearGradient6046"
       xlink:href="#linearGradient4802"
       inkscape:collect="always" />
    <linearGradient
       y2="560.22156"
       x2="153.32825"
       y1="560.22156"
       x1="152.77092"
       gradientUnits="userSpaceOnUse"
       id="linearGradient6044"
       xlink:href="#linearGradient4802"
       inkscape:collect="always" />
    <linearGradient
       y2="560.22156"
       x2="153.32825"
       y1="560.22156"
       x1="152.77092"
       gradientUnits="userSpaceOnUse"
       id="linearGradient6042"
       xlink:href="#linearGradient4802"
       inkscape:collect="always" />
    <linearGradient
       id="linearGradient4802"
       inkscape:collect="always">
      <stop
         id="stop4804"
         offset="0"
         style="stop-color:#6e6e37;stop-opacity:1;" />
      <stop
         id="stop4806"
         offset="1"
         style="stop-color:#30331f;stop-opacity:1" />
    </linearGradient>
    <linearGradient
       id="linearGradient5449"
       inkscape:collect="always">
      <stop
         id="stop5451"
         offset="0"
         style="stop-color:#ffffff;stop-opacity:0.34259259" />
      <stop
         id="stop5453"
         offset="1"
         style="stop-color:#ffffff;stop-opacity:0;" />
    </linearGradient>
    <linearGradient
       id="linearGradient5459"
       inkscape:collect="always">
      <stop
         id="stop5461"
         offset="0"
         style="stop-color:#ffffff;stop-opacity:0.21759259" />
      <stop
         id="stop5463"
         offset="1"
         style="stop-color:#ffffff;stop-opacity:0;" />
    </linearGradient>
    <pattern
       patternTransform="translate(642.125,682.9375)"
       id="pattern10214"
       xlink:href="#pattern9481"
       inkscape:collect="always" />
    <pattern
       patternTransform="translate(642.125,682.9375)"
       id="pattern10225"
       xlink:href="#pattern10214"
       inkscape:collect="always" />
    <pattern
       patternTransform="translate(642.125,682.9375)"
       id="pattern10228"
       xlink:href="#pattern9481"
       inkscape:collect="always" />
  </defs>
  <sodipodi:namedview
     id="base"
     pagecolor="#ffffff"
     bordercolor="#666666"
     borderopacity="1.0"
     inkscape:pageopacity="0.0"
     inkscape:pageshadow="2"
     inkscape:zoom="1"
     inkscape:cx="288.85253"
     inkscape:cy="107.78378"
     inkscape:document-units="px"
     inkscape:current-layer="layer1"
     showgrid="false"
     fit-margin-top="0"
     fit-margin-left="0"
     fit-margin-right="0"
     fit-margin-bottom="0"
     inkscape:window-width="3200"
     inkscape:window-height="1687"
     inkscape:window-x="0"
     inkscape:window-y="55"
     inkscape:window-maximized="1">
    <inkscape:grid
       type="xygrid"
       id="grid7211"
       empspacing="5"
       visible="true"
       enabled="true"
       snapvisiblegridlinesonly="true"
       originx="2662.1293px"
       originy="-604.99999px" />
  </sodipodi:namedview>
  <metadata
     id="metadata7">
    <rdf:RDF>
      <cc:Work
         rdf:about="">
        <dc:format>image/svg+xml</dc:format>
        <dc:type
           rdf:resource="http://purl.org/dc/dcmitype/StillImage" />
        <dc:title></dc:title>
      </cc:Work>
    </rdf:RDF>
  </metadata>
  <g
     inkscape:label="Layer 1"
     inkscape:groupmode="layer"
     id="layer1"
     transform="translate(2662.1293,-233.14007)">
    <g
       transform="translate(-745.5,-372)"
       id="g7380">
      <rect
         style="fill:#504416;fill-opacity:1;stroke:none"
         id="rect7382"
         width="8"
         height="13.192389"
         x="-1890.8329"
         y="806.1698" />
      <g
         id="g7384"
         transform="matrix(1.0803557,0,0,1.0803557,271.36744,-285.41064)">
        <path
           inkscape:connector-curvature="0"
           id="path7386"
           d="m -1999.5,837.61218 c -5.4167,56.75001 -10.8333,113.50001 -16.25,170.25002 13.0833,1.0833 26.1667,2.1667 39.25,3.25 -7.6667,-57.83334 -15.3333,-115.66668 -23,-173.50002 z"
           style="fill:#55d400;stroke:none" />
        <path
           inkscape:connector-curvature="0"
           id="path7388"
           d="m -1996.1679,830.4375 c -1.7414,1.57737 -2.981,4.5885 -5.4546,4.07462 -1.1281,0.44143 -6.4198,-0.16077 -3.6838,1.24921 1.8236,1.16495 4.5231,1.97431 2.3494,4.7619 -0.2371,3.17324 -2.3512,1.78229 -4.4214,1.39742 -3.6124,-1.11325 3.7506,2.93126 0.1321,3.0252 -3.4089,0.97599 -2.4076,1.39533 0.5267,1.57071 3.216,-1.30184 0.1182,5.30139 3.0634,2.50873 2.4925,-1.52996 1.7098,-0.92732 4.3304,0.21954 2.0143,2.87406 1.5724,-3.98169 2.5426,0.61469 -0.074,3.64514 2.8141,-2.44518 4.3699,-0.69029 2.8884,1.75976 3.1021,0.90697 2.5158,-1.83588 1.2628,-0.48171 6.4851,-0.86659 2.9545,-1.46552 -3.0649,-0.078 -2.8714,-1.53058 -0.8034,-3.77398 -1.8659,0.0661 -4.2413,2.6786 -5.6363,0.39104 -1.823,-3.71784 -1.686,1.98747 -3.544,1.51521 3.2261,-2.6411 -0.4475,-1.42537 -2.3199,-1.21645 -3.3254,-0.4943 -0.3933,-2.55693 1.6601,-2.59798 2.0406,0.2394 4.0816,1.26977 6.1224,1.81443 -0.7157,-2.66503 -1.0568,-5.09733 1.7252,-5.58948 2.8892,-1.32281 3.1513,-2.02763 -0.1363,-1.89743 -2.0221,-0.13629 -4.2565,0.24749 -5.2145,-2.49496 -0.3594,-0.52692 -0.7189,-1.05378 -1.0783,-1.58073 z m -5.0832,19.65625 c -1.7749,1.43307 -3.3789,3.6153 -5.6898,2.69759 -2.5045,-0.30373 -4.7738,-0.50757 -1.4628,1.66 3.5853,0.60578 -1.8937,4.97744 0.6319,4.5193 1.409,0.0833 4.7101,-1.41563 5.0059,-0.14651 -1.5521,2.00626 -3.5288,2.13128 -5.6272,1.71707 -3.7003,-0.8119 -1.7536,0.77588 0.3515,2.43095 1.5885,1.29449 -3.2434,5.19796 0.8046,3.65221 2.4845,-0.6715 4.3054,-0.85741 1.79,2.12962 -1.4019,0.0681 -4.6313,-1.32487 -5.1105,-0.86206 2.018,1.76726 3.5799,3.41964 0.141,3.81306 -3.7931,0.9933 0.8367,0.97462 2.413,1.3228 2.5114,-0.42916 -0.4426,5.74288 2.8083,2.55726 1.9168,-2.058 3.7879,-0.0568 5.6697,0.99457 0.3251,-0.57613 0.8709,-2.80571 3.5484,-1.82518 0,3.1133 0.6674,3.92552 2.8878,1.45633 1.4603,-2.10112 4.4635,1.46072 5.4051,0.55966 -1.9312,-3.25245 0.5106,-3.41372 2.7304,-3.73198 3.694,-0.39993 -1.2612,-1.0266 -2.5111,-1.55614 -1.3035,-0.70035 3.7771,-4.87601 -0.3152,-2.79074 -2.1304,1.23249 -3.9815,1.057 -5.3676,-1.46357 1.1589,-0.18436 4.6764,2.53475 4.6957,0.74537 -1.4368,-3.21236 1.3188,-3.78617 3.1783,-4.92393 2.1758,-1.14606 -3.0334,-0.53525 -4.0406,-0.9241 -2.7608,-0.945 -2.1009,-2.9387 0.6069,-1.15653 -1.187,-3.03701 0,-4.59391 2.4272,-5.38073 3.4607,-1.4517 -1.4922,-0.90189 -2.7745,-1.22528 -2.2851,1.29809 -2.823,-4.78151 -4.4664,-2.60006 -1.348,1.97195 -3.0501,3.43078 -5.1616,2.16409 -1.3925,-0.1122 -1.6934,-2.73306 -2.5684,-3.83307 z m 2.7566,6.9375 c 1.4707,0.70263 -0.5982,3.09931 -3e-4,0 l 3e-4,0 z m 4.7291,2.28125 c 1.2343,0.55969 -2.1264,3.81386 -3.4875,2.88811 -1.6204,0.93621 -5.2239,-3.7687 -2.4634,-2.20138 0.5701,2.04629 2.7664,0.0342 4.6422,-0.25447 0.4362,-0.14408 0.8725,-0.28817 1.3087,-0.43226 z m -4.6026,5.3125 c 1.8959,0.62374 -0.2665,5.00442 -2.006,4.21444 -1.4788,1.07928 -4.4237,-4.52548 -1.489,-1.89835 2.1648,1.47952 3.9037,2.22046 2.9579,-1.69343 -0.2809,-0.5979 0.3225,-0.44525 0.5371,-0.62266 z m 4.7291,2.59375 c -0.152,2.88421 -3.1322,3.71352 -3.9767,2.53639 1.4519,-2.14775 0.7883,-1.41856 3.8014,-2.4782 l 0.1753,-0.0582 z m -5.2349,6.25 c -0.7103,0.84167 -1.2524,-0.15385 0,0 z m -3.7429,2 c -1.9023,1.27989 -3.4616,4.06163 -5.8633,3.15444 -1.169,0.25102 -6.3551,-1.20192 -3.7939,0.63138 1.688,1.44013 4.2692,2.67103 1.8186,5.08067 -2.1352,2.87035 2.5168,0.55273 3.8125,0.80054 2.5539,-1.31699 -0.5325,4.43802 -2.1104,2.41996 -1.1666,0.0391 -6.1862,-2.20821 -3.7782,-0.0479 2.0712,1.74646 3.33,3.28814 -0.01,3.67089 -3.3994,0.95057 -2.4962,1.37881 0.4842,1.55487 2.3294,-0.0806 4.1627,0.35127 3.1375,3.73564 0.2251,1.7663 3.3161,-1.56328 4.6574,-1.78175 2.8323,1.03056 2.9808,2.23105 0.1917,3.61753 -1.6373,2.3603 -3.4503,-0.4383 -5.1907,-1.18254 -2.9985,-2.89055 0.076,2.71328 -0.7962,3.42671 -2.2327,-0.0893 -4.4654,-0.17863 -6.698,-0.26795 1.8799,0.98958 3.7598,1.97917 5.6397,2.96875 -0.9592,0.87094 -5.817,2.92388 -3.7565,2.87934 1.8969,0.22061 4.593,-0.66872 5.9881,0.24874 0.7162,3.40481 0.134,4.56273 -2.3834,2.37192 0.3087,2.50118 1.3243,5.65432 -1.7732,5.01403 -1.2678,0.44709 -6.4493,0.54829 -2.9546,1.41633 1.3833,1.1449 5.3476,0.56009 4.7482,3.03376 -1.5748,3.62338 0.021,3.36696 2.4209,2.1272 1.9626,-1.18008 3.8486,-1.05286 5.6513,0.48913 2.1645,1.56335 3.8524,2.34945 2.6662,-1.55234 -0.6372,-2.95278 3.1753,-0.26903 4.518,-0.5923 2.2697,-0.2679 -1.395,6.46513 1.4951,4.09041 2.1603,-0.79391 4.2272,-3.46977 6.5103,-1.78607 1.427,0.0938 5.2886,3.2527 3.709,-0.43876 -1.7484,-3.2412 1.5224,-3.02645 3.2727,-3.85866 3.4291,-0.82804 2.4591,-1.30892 -0.4731,-1.63496 -2.3345,-0.15315 -4.4709,-0.48462 -3.1471,-3.93128 1.3917,-1.13736 -2.523,-5.01068 -0.1078,-5.06305 2.004,-0.25031 4.0081,-0.50063 6.0121,-0.75094 -1.9726,-0.67708 -3.9453,-1.35417 -5.9179,-2.03125 0.8447,-1.0156 5.4396,-3.85912 3.3892,-3.46364 -1.904,0.0976 -4.4886,1.42744 -5.9642,0.74955 -1.2776,-3.47158 -0.079,-3.76916 1.5246,-3.17189 -1.4445,-2.88778 -0.9842,-4.42823 1.8729,-4.27347 2.5402,-0.44305 4.579,-0.89764 0.8769,-1.48428 -2.4744,-0.31517 -4.2012,-0.94181 -1.5442,-3.39479 2.7901,-3.49811 -3.1784,1.74445 -2.4842,-2.01311 -1.4607,-3.13175 1.5477,-3.46725 3.2099,-4.64509 3.5451,-1.47713 -1.2544,-0.99125 -2.6688,-1.30173 -2.3501,0.66733 -3.4697,-1.67951 -4.744,-3.64722 -1.4372,-0.19437 -2.5969,3.58214 -4.3737,3.61951 -1.8001,0.12482 -4.4412,0.4019 -5.4812,-1.64398 -0.5314,-1.04745 -1.0628,-2.09491 -1.5942,-3.14236 z m 4.2233,7.5625 c 2.452,-0.005 -0.2313,5.33988 -0.8541,4.24574 0.2572,-1.44027 -1.0659,-4.25824 0.8541,-4.24574 z m -5.8925,2.0625 c 1.0605,0.83005 5.4033,2.2272 4.3467,2.69145 -2.3695,1.06213 -3.0204,-0.63736 -4.3467,-2.69145 z m 11.1781,1.0625 c -0.6096,3.03934 -2.3116,3.70342 -4.628,3.03125 1.9508,-2.2923 1.2518,-2.06166 4.1075,-2.85978 l 0.3215,-0.10594 0.199,-0.0656 0,5e-5 z m 1.1128,0 c 1.1316,0.63279 5.6013,1.26116 4.5913,1.89678 -2.0867,1.45616 -3.157,-0.13273 -4.5913,-1.89678 z m -7.0053,4.4375 c 0.1833,0.10784 -0.1126,0.0568 0,0 z m -0.607,2.9375 c -0.3074,0.78891 -0.5534,-0.48223 0,0 z m 4.0717,1.34375 c -0.1128,3.07124 0.133,5.27504 2.4857,2.38308 1.1648,-2.08741 4.2865,-1.46735 4.7928,-0.18556 -1.6507,1.11683 -2.9659,4.6065 -5.0291,2.80718 -1.3325,-0.2118 -5.1793,-3.36297 -3.2485,0.15829 -0.1918,0.58228 -4.4509,1.31523 -4.5942,-0.26383 -1.3646,-4.42072 1.3657,-1.92939 1.7843,-2.85887 -1.435,-3.37149 2.3699,-1.44768 3.809,-2.04029 z m -0.4553,6.71875 c 0.9834,1.69097 -3.5426,0.99046 0,0 z m -4.2487,4.4375 c 3.8468,-1.48026 0.7863,3.11585 0.1304,0.5639 l -0.091,-0.39535 -0.039,-0.1686 0,5e-5 z m -4.1727,1.09375 c 0.8534,1.02937 5.6911,2.54834 3.5665,3.21175 -2.1722,0.44973 -4.4471,2.59337 -6.4721,0.61255 -2.6455,-0.98075 2.0148,-2.55586 2.9056,-3.8243 l 0,0 z m 10.0906,0.4375 c 0.7748,2.90015 1.1699,5.29761 -1.793,3.25012 -0.6011,0.90133 2.2105,5.58487 -0.8523,4.72548 -2.2922,-0.55482 -4.3973,-1.23456 -2.7172,-4.44142 -0.063,-2.30574 0.7664,-3.11344 3.3388,-3.14121 0.6745,-0.13099 1.3491,-0.26198 2.0237,-0.39297 z m 4.6027,0.40625 c 0.9318,0.8781 5.9032,1.58001 3.8402,2.58874 -2.0911,0.80755 -4.0968,3.29893 -6.3109,1.67981 -2.7172,-0.52466 1.7307,-2.86691 2.4707,-4.26855 l 0,0 z m -18.3603,13.65625 c -1.9023,1.27981 -3.4616,4.06192 -5.8632,3.15397 -1.159,0.25192 -6.3421,-1.20374 -3.7687,0.63187 1.6881,1.44012 4.2692,2.67103 1.8186,5.08068 -2.1351,2.87118 2.5164,0.54868 3.8119,0.79449 1.8808,-1.65296 4.9993,2.15078 2.6088,1.68172 -1.3803,-2.67344 -2.0093,3.90281 -4.3636,1.3299 -3.3132,-1.21064 -2.7915,-0.16619 -0.3817,1.9886 -0.4311,0.86808 -6.003,1.86407 -2.2486,2.0033 2.2126,0.003 4.2267,0.21246 3.202,3.58547 2.1434,-1.12806 3.4548,-2.31496 4.3499,-1.5312 2.2774,1.66122 2.9937,1.97897 3.3967,-0.11085 0.8752,1.96107 0.7382,4.0917 3.2694,1.15819 1.1363,-1.99593 5.2805,2.78921 4.4889,-0.10791 0.051,-4.00437 1.4548,2.11351 1.6912,1.75199 2.608,-1.34446 2.4844,-1.92979 4.3421,-0.83091 2.8507,3.13155 1.736,-1.13564 3.3702,-0.0752 -0.6054,4.32835 1.8225,1.32357 3.492,0.15233 1.6632,0.43214 5.2854,3.20068 3.3517,-0.65663 -0.5547,-1.78427 5.3738,-1.11049 4.0408,-1.99003 -2.0059,-0.56257 -5.1882,-0.62892 -2.3101,-3.25193 1.0325,-1.91896 -3.3512,1.28998 -4.367,0.43385 -1.5332,-2.68013 -2.7031,-2.31784 -3.4467,0.74599 -1.3825,-0.35835 2.3506,-2.85464 -1.5029,-1.52731 -2.7873,1.13029 -3.8641,-1.09355 -0.526,-1.37529 1.8552,1.73273 1.9884,-2.42795 4.5302,-0.64624 1.3585,-0.13657 5.3333,3.15735 4.2921,-0.12594 -1.4775,-3.13823 1.5048,-3.50605 3.1923,-4.67819 3.5451,-1.47713 -1.2545,-0.99126 -2.6689,-1.30173 -2.35,0.66733 -3.4696,-1.67956 -4.7439,-3.64717 -1.413,-0.42941 -2.4948,4.01502 -4.3174,3.05187 -1.1345,-1.71968 -1.8617,-5.89572 -3.7957,-2.79156 -1.5123,2.03143 -3.4818,2.06146 -5.5464,1.67473 -1.8682,-0.019 -2.6411,-5.78969 -4.3843,-2.37823 -1.3042,2.55065 -3.3663,2.71501 -4.1114,-0.43542 -0.3008,-0.58567 -0.6012,-1.17197 -0.9023,-1.75722 z m 5.1084,10.46875 c 2.3907,0.63774 2.931,1.39001 5.1304,1.67251 0.6783,-0.34075 2.6472,-1.61864 4.5094,-1.10997 2.7192,1.04598 0.4771,2.94026 -0.4778,1.0828 -0.1982,2.77714 -4.6917,3.21948 -2.1492,0.52995 -0.7439,0.14832 -3.9471,0.89881 -4.2747,1.24101 -1.6335,-1.32808 -3.0204,-3.77792 -3.7691,0.12864 -2.0091,1.17723 2.4075,-2.91822 -1.6858,-1.1035 -2.7873,1.13029 -3.8641,-1.09355 -0.526,-1.37529 2.7469,1.67793 0.3206,-1.02538 3.2428,-1.06615 z m -6.373,10 c -1.7748,1.43307 -3.3789,3.6153 -5.6897,2.69759 -2.5045,-0.30373 -4.7739,-0.50757 -1.4628,1.66 3.5852,0.60578 -1.8938,4.97744 0.6319,4.5193 1.409,0.0833 4.7101,-1.41563 5.0058,-0.14651 -1.552,2.00626 -3.5287,2.13128 -5.6271,1.71707 -3.7003,-0.8119 -1.7536,0.77588 0.3515,2.43095 1.5885,1.29449 -3.2434,5.19796 0.8046,3.65221 2.4845,-0.6715 4.3054,-0.85741 1.79,2.12962 -1.4019,0.0681 -4.6313,-1.32487 -5.1105,-0.86206 2.018,1.76726 3.5798,3.41964 0.141,3.81306 -3.7932,0.9933 0.8367,0.97462 2.413,1.3228 2.5114,-0.42916 -0.4426,5.74288 2.8082,2.55726 1.9169,-2.058 3.788,-0.0568 5.6698,0.99457 0.325,-0.57613 0.8709,-2.80571 3.5484,-1.82518 0,3.1133 0.6674,3.92552 2.8878,1.45633 1.7656,-3.15767 4.0946,3.27955 1.8265,0.28477 -1.5465,0.4006 -2.6153,4.20025 -4.7174,3.36379 -0.292,0.65018 -2.3382,0.58301 -4.2879,-0.14751 -1.3934,-0.96629 -1.7851,-6.06182 -3.7207,-3.07973 -1.5523,1.8561 -3.3757,2.52532 -5.4883,1.92775 -2.0501,-0.12267 -5.4228,-0.80642 -1.9789,1.40135 2.7507,1.19121 2.1041,3.17824 0.4482,5.40171 0.3356,0.98174 3.8143,-0.43899 5.3554,-0.37877 0.08,1.57654 -2.1265,4.05275 -4.082,2.34262 -2.0189,-0.46667 -5.281,-1.67107 -2.0393,0.98392 3.1788,2.02571 0.2593,2.51401 -1.718,3.23985 -3.7822,0.99704 0.8692,0.97023 2.4282,1.31885 2.8231,-0.71234 2.3821,1.94679 2.0987,4.44319 1.8644,-0.51344 3.7577,-3.25596 5.6001,-2.08157 3.5172,0.9872 -0.1688,2.43046 -1.5509,3.72786 -1.6831,0.98476 -3.4984,-1.81219 -5.2295,-2.40635 -1.8727,-1.04955 2.2286,5.47446 -0.9086,3.95684 -1.5406,0.0481 -4.9359,-0.41052 -5.3942,-0.0669 1.4504,1.00462 4.6031,1.94963 5.0353,2.98991 -0.9463,0.86706 -6.0624,2.99829 -3.1255,2.68806 1.7404,0.43781 4.9339,-1.14213 5.6868,0.66704 1.1921,4.20836 -0.9269,2.76616 -2.3678,2.36956 0.6203,2.7885 0.8138,5.1836 -2.1494,4.6671 -1.5876,0.4189 -6.1196,0.5775 -2.3065,1.4736 1.3806,1.1466 5.5007,0.4574 4.3349,3.3107 -1.7554,3.8445 0.7823,2.4357 2.8352,1.6202 1.9742,-1.3747 3.8184,-0.5393 5.6349,0.7705 2.4603,2.0459 3.2616,1.3858 2.3134,-2.1277 -0.046,-2.2873 3.5075,0.1859 4.8961,-0.1227 1.4287,0.5733 -1.576,6.5911 1.4696,3.8589 2.2012,-0.6312 4.6032,-2.7127 6.697,-0.7826 1.406,0.326 4.915,4.0824 3.7244,0.1735 -1.3785,-3.6926 1.5664,-2.3451 3.3835,-1.9988 3.2102,-0.949 0.7044,4.0103 1.5679,4.7735 1.9492,-0.8434 3.8576,-2.5097 5.8306,-2.8729 1.917,0.7107 3.834,1.4213 5.7509,2.1319 -0.5702,-2.4299 -1.9093,-5.3892 1.2261,-5.2677 1.2068,-0.6527 6.328,-1.6143 2.7693,-1.8909 -1.5031,-0.9016 -5.376,0.3302 -5.0525,-2.2158 0.6554,-2.7515 0.4806,-3.9202 -0.6884,-6.5449 0.7366,-1.15999 3.8546,-0.60513 5.4769,-1.12735 3.1929,-0.12499 -2.1405,-1.14877 -3.1114,-1.71268 -3.156,-0.43834 1.5708,-2.46706 2.4296,-3.71538 0.4719,-0.83392 -3.6837,0.58767 -5.0711,0.66001 -1.7597,1.80751 -2.9545,-5.62765 -0.7608,-3.35777 2.8025,1.59467 -2.1164,-4.69946 1.1584,-3.87054 1.0525,-0.47727 6.2238,-0.85981 4.1389,-1.40925 -1.1013,-0.88721 -5.7677,-0.28915 -4.2461,-2.26913 2.1931,-2.60652 2.2234,-3.53572 -0.8386,-2.06664 -0.9941,-1.32925 -1.5872,-5.20049 1.1362,-5.28237 2.3762,-1.20216 4.1657,-2.26627 0.4967,-2.04635 -1.9358,-0.34756 -4.3748,0.53718 -5.3321,-2.20694 -1.1912,-3.62736 -2.7959,0.11567 -4.2628,1.40275 -1.5067,1.4602 -3.7526,0.60536 -5.502,0.20227 2.5234,-1.0084 -2.647,-0.45241 -2.3972,-3.63317 -1.0532,-2.09144 -3.3022,4.11325 -4.3396,0.66914 0.6465,-1.38411 2.6357,-1.55109 3.7742,-2.23246 1.3523,0.37607 4.925,4.20835 3.5348,0.31529 1.8331,-0.35522 4.4013,-0.80995 3.6234,2.69103 0.956,1.09022 3.2027,-3.56393 4.9351,-1.73792 2.4927,1.42385 3.8349,1.47863 2.1738,-2.04061 1.1454,-0.46675 5.6873,-0.84446 4.6615,-1.36812 -1.6406,-0.735 -5.7479,-0.44792 -2.8913,-3.04642 2.3507,-2.7284 -2.3698,0.0599 -3.5687,0.10097 -1.8618,-0.1661 -4.0443,-3.75082 -0.5784,-1.60378 3.1264,2.04539 2.2768,-0.51705 2.349,-2.94572 0.8551,-0.83185 5.9896,-2.68175 2.9228,-2.58061 -2.0522,-0.42866 -4.7203,0.6584 -5.7756,-2.2231 2.1445,1.13839 3.3502,0.5925 2.1473,-2.83322 0.8249,-0.82466 5.7996,-2.63655 3.5558,-2.73119 -2.1362,-0.4994 -4.9896,0.74867 -6.0956,-2.26072 -1.2443,-3.25082 -2.6956,1.69468 -4.3166,1.99479 -2.1215,0.23476 -3.9768,-0.76511 -4.6686,-3.38738 -1.1525,-2.11577 -2.8854,2.78629 -4.6923,1.9241 -2.3565,1.37401 -2.9449,-4.75357 -4.6048,-2.62072 -1.3481,1.97195 -3.0502,3.43078 -5.1616,2.16409 -1.3922,-0.11246 -1.6947,-2.73362 -2.5683,-3.83407 z m 2.7566,6.9375 c 1.4707,0.70263 -0.5981,3.09931 -2e-4,0 l 2e-4,0 z m 16.5901,1.5 c 1.4707,0.70263 -0.5981,3.09931 -2e-4,0 l 2e-4,0 z m -11.8609,0.78125 c 1.2342,0.55969 -2.1264,3.81386 -3.4875,2.88811 -1.6204,0.93621 -5.2239,-3.7687 -2.4634,-2.20138 0.57,2.04629 2.7664,0.0342 4.6421,-0.25447 0.4362,-0.14408 0.8725,-0.28817 1.3088,-0.43226 z m 7.2076,0.4375 c 1.2699,0.74742 -2.3669,3.20085 -3.5911,2.3125 -2.7328,-3.10844 1.7508,-0.19829 1.6453,-2.01858 0.6486,-0.098 1.2973,-0.19586 1.9458,-0.29392 z m 9.3825,1.0625 c 1.2342,0.55969 -2.1264,3.81386 -3.4875,2.88811 -1.6204,0.93621 -5.2239,-3.7687 -2.4634,-2.20138 0.57,2.04629 2.7664,0.0342 4.6421,-0.25447 0.4362,-0.14408 0.8725,-0.28817 1.3088,-0.43226 z m -21.1928,3.8125 c 1.8959,0.62374 -0.2665,5.00442 -2.0059,4.21444 -1.4788,1.07928 -4.4237,-4.52548 -1.4891,-1.89835 2.1649,1.47952 3.9038,2.22046 2.958,-1.69343 -0.281,-0.5979 0.3225,-0.44525 0.537,-0.62266 z m 16.5901,1.5 c 1.8959,0.62374 -0.2665,5.00442 -2.0059,4.21444 -2.257,0.77532 -3.1475,-3.9855 -0.2705,-1.27434 3.7115,3.01301 0.5105,-1.96275 2.2764,-2.9401 z m -11.4057,1.0625 c 1.7269,0.063 0.8762,1.62198 0,0 z m -0.4552,0.0312 c -0.1521,2.88421 -3.1322,3.71352 -3.9768,2.53639 1.478,-2.16116 0.7217,-1.40533 3.7779,-2.47084 l 0.1989,-0.0656 z m 6.3477,0.375 c -0.9376,1.76565 -3.7625,2.98955 -4.8557,0.78125 2.1925,-0.58982 3.5701,0.84871 4.6573,-0.74996 l 0.1984,-0.0313 z m 0.4805,0.0625 c 1.3556,0.24981 0.565,1.17329 0,0 z m 9.7619,1.0625 c -0.1521,2.88421 -3.1322,3.71352 -3.9768,2.53639 1.452,-2.14775 0.7884,-1.41856 3.8015,-2.4782 l 0.1753,-0.0582 z m -21.8251,4.75 c -0.7103,0.84167 -1.2523,-0.15385 0,0 z m 16.5901,1.5 c -0.7103,0.84167 -1.2523,-0.15385 0,0 z m -16.1096,8.0625 c 2.4519,-0.005 -0.2314,5.33988 -0.8541,4.24574 0.2572,-1.44027 -1.066,-4.25824 0.8541,-4.24574 z m 16.5901,1.5 c 2.4519,-0.005 -0.2314,5.33988 -0.8541,4.24574 0.2572,-1.44027 -1.066,-4.25824 0.8541,-4.24574 z m -22.4827,0.5625 c 1.0605,0.83005 5.4033,2.2272 4.3467,2.69145 -2.3694,1.06213 -3.0203,-0.63736 -4.3467,-2.69145 z m 10.0401,1.4375 c 0.6812,0.98143 0.3115,2.61965 -2.4278,1.46875 0.6618,-1.00642 0.073,-0.71762 2.4278,-1.46875 z m 3.8947,0.15625 c 4.522,1.79245 -3.887,1.63995 0,0 z m 3.5153,0.375 c 1.8103,0.14646 0,1.53842 0,0 z m 10.3182,0.59375 c -0.6096,3.03934 -2.3116,3.70342 -4.6281,3.03125 1.9509,-2.2923 1.2519,-2.06166 4.1076,-2.85978 l 0.3215,-0.10594 0.199,-0.0656 0,5e-5 z m 1.1128,0 c 1.1316,0.63279 5.6013,1.26116 4.5913,1.89678 -2.0867,1.45616 -3.1571,-0.13273 -4.5913,-1.89678 z m -11.4817,0.15625 c 0.3016,-0.0659 0.014,0.1694 0,0 z m -9.8882,0.3125 c 3.0762,1.55454 -2.405,1.6517 -0.2171,0.24 l 0.2171,-0.24 z m 12.2908,0.125 c 4.2137,0.65796 -2.0772,2.36776 -0.2697,0.39794 l 0.2137,-0.31526 0.056,-0.0827 z m -14.5163,2.34375 c 0.1833,0.10784 -0.1126,0.0568 0,0 z m -0.607,2.9375 c -0.3074,0.78891 -0.5534,-0.48223 0,0 z m 4.0717,1.34375 c -0.3432,3.7371 0.646,3.37349 1.7386,4.37438 -0.017,1.38577 -4.7711,-3.04485 -2.8717,0.41226 0.6186,1.59504 -3.8549,1.00064 -4.4328,0.52229 -0.8927,-3.62118 0.328,-3.69252 1.8279,-2.86693 -1.5252,-3.50303 2.019,-2.08694 3.738,-2.44205 l 0,5e-5 z m 12.5184,0.15625 c -0.3074,0.78891 -0.5534,-0.48223 0,0 z m 4.0717,1.34375 c -0.1128,3.07124 0.133,5.27504 2.4857,2.38308 1.1648,-2.08741 4.2865,-1.46735 4.7928,-0.18556 -1.6507,1.11683 -2.9659,4.6065 -5.0291,2.80718 -1.7328,-0.40407 -3.2084,-2.07782 -4.5761,-1.56288 -1.8196,1.07295 -4.5785,0.46859 -3.1907,-1.70069 3.3243,3.1999 -0.1,-2.82525 3.0328,-1.66626 0.8282,-0.0249 1.6564,-0.0499 2.4846,-0.0749 z m -9.509,0.25 c 0.3559,0.60935 -2.6129,4.52345 -3.9199,2.1875 -2.7738,-1.40075 0.9453,-2.70968 0.3032,-0.16923 1.2056,-0.67276 2.4112,-1.34551 3.6167,-2.01827 z m 0.5817,0.21875 c 1.9098,0.95885 4.0212,0.44962 1.2406,2.30752 -1.247,1.66813 -0.825,-1.51977 -1.2406,-2.30752 z m 7.334,3.03125 c 2.8166,2.92067 -3.2431,2.51538 -2.0781,1.72832 0.6927,-0.5761 1.3854,-1.15221 2.0781,-1.72832 z m -15.4521,1.71875 c 0.4249,0.78466 -1.1917,0.2586 0,5e-5 l 0,-5e-5 z m 16.5901,1.5 c 1.0083,1.67703 -3.5133,0.9491 0,0 z m -20.8388,2.9375 c 3.8468,-1.48026 0.7863,3.1159 0.1304,0.5639 l -0.091,-0.39535 -0.039,-0.1686 0,5e-5 z m -4.1728,1.09375 c 0.8535,1.02935 5.6912,2.54835 3.5666,3.21175 -2.1723,0.4498 -4.4471,2.5934 -6.4721,0.6125 -2.6455,-0.9807 2.0148,-2.5558 2.9055,-3.82425 l 0,0 z m 20.7629,0.40625 c 3.8468,-1.48024 0.7863,3.1158 0.1304,0.5638 l -0.091,-0.3953 -0.039,-0.16855 0,5e-5 z m -10.6722,0.0312 c 0.853,3.0105 0.2837,3.472 -1.186,3.4671 -2.3022,-0.886 2.0979,5.4526 -1.4975,4.3273 -2.3171,-0.1836 -4.3287,-1.1818 -2.6791,-4.2602 -0.07,-2.3029 0.7226,-3.11166 3.3139,-3.13827 0.683,-0.13197 1.3658,-0.26395 2.0487,-0.39593 z m 6.3477,1.1875 c 2.9167,0.7922 2.7777,2.0878 -0.062,2.9567 -1.1319,1.8556 -5.6387,0.3675 -2.471,-1.0111 0.844,-0.6485 1.6882,-1.2971 2.5323,-1.9456 z m 10.2424,0.3125 c 0.7748,2.9001 1.1699,5.2976 -1.793,3.2502 0.5148,2.2383 0.5292,4.1548 -2.4563,2.6528 -3.2137,0.1895 0.1923,-3.2118 -1.0616,-4.8717 1.7703,-0.3438 3.5406,-0.6875 5.3109,-1.0313 z m 4.6027,0.4063 c 0.9318,0.8781 5.9032,1.58 3.8401,2.5887 -2.0911,0.8075 -4.0968,3.2989 -6.3108,1.6798 -2.7173,-0.5247 1.7307,-2.8669 2.4707,-4.2685 l 0,0 z m -18.9673,0.9687 c 0.8578,2.4846 -1.8443,0.7082 0,0 z m 7.5363,0.25 c 3.2796,0.8644 -1.3034,2.2677 0,0 z m 5.6396,5.25 c -0.011,2.3152 -3.9443,0.4289 -0.3108,0.1135 l 0.3108,-0.1135 z"
           style="fill:#338000;fill-opacity:1;stroke:none" />
        <path
           inkscape:connector-curvature="0"
           id="path7390"
           d="m -1998.1875,827.09375 c -0.9172,3.06125 -3.1885,3.31889 -5.9608,2.53904 -5.2309,-1.0606 3.6669,2.19977 0.3483,2.79787 -3.586,1.17228 -4.2358,1.83475 -0.034,1.65474 4.1454,-1.90375 1.092,4.73785 4.0039,2.45367 2.221,-2.13937 4.6294,-0.98145 7.0364,0.15346 0.5187,-0.73701 -0.7293,-4.25338 3.4372,-3.251 4.7902,-0.12187 -0.866,-1.10196 -2.7165,-1.76939 1.2699,-1.84249 3.6819,-3.74435 -0.7825,-2.26907 -2.7648,1.2971 -3.586,-0.53255 -5.3324,-2.30932 z m 1.75,8.96875 c -2.0835,1.58384 -3.9047,3.89543 -6.8151,3.18597 -3.1102,-0.0823 -5.9074,-0.0812 -1.6801,1.79312 4.4678,0.29003 -1.9637,5.11964 1.1111,4.43525 2.9598,-0.53256 5.9668,-1.80585 8.7828,-0.0834 3.7096,2.28467 2.5062,-0.6245 2.9213,-2.82565 1.106,-0.7602 7.5585,-2.19184 3.767,-2.33696 -2.5062,-0.59419 -5.8714,0.27657 -6.9904,-2.68392 -0.3655,-0.49481 -0.7311,-0.98963 -1.0966,-1.48445 z m -1.8437,9.75 c -1.0075,2.79881 -2.8479,3.87329 -5.7086,2.83566 -4.5942,-1.1011 -1.5556,0.77537 0.6711,2.33513 -0.041,0.8057 -7.0128,2.29778 -3.9174,2.3432 2.0493,0.57536 6.5422,-1.2263 5.5986,2.26053 -0.2179,3.31036 3.6785,-2.13052 5.4014,-0.84565 2.367,0.90561 5.936,3.12725 3.762,-0.93848 0.5428,-1.52555 4.5704,-0.74161 6.4739,-1.36539 -1.4866,-0.99603 -7.4622,-0.79055 -4.7677,-2.90571 3.7583,-2.91063 -0.9014,-1.24399 -3.0465,-0.94463 -2.126,1.04038 -2.9689,-1.73622 -4.4668,-2.77466 z m 1.9687,9 c -2.2524,1.43669 -3.9789,4.3392 -6.9979,3.63909 -1.4205,0.35277 -7.9104,-0.65542 -4.6252,0.96065 2.1771,1.30291 5.4624,2.31674 2.6055,4.93282 -2.4213,3.03443 3.1564,0.31033 4.759,0.44794 2.1443,0.89494 -2.6907,2.55782 -4.4524,1.34147 -3.6863,-0.7314 -4.5734,-0.36623 -0.9969,1.7475 3.6902,1.74251 -2.1713,2.28436 -3.6903,3.37209 -2.1411,0.92396 4.0704,0.38532 5.5035,0.6834 3.2191,-0.55393 1.7218,4.64927 -1.2331,2.98377 -2.5263,0.0599 -6.8547,-0.36825 -2.4424,1.57113 3.0466,1.10582 3.9818,2.76505 1.5975,5.29423 -1.326,1.84216 3.5739,0.23061 2.9948,4.18841 -2.8216,0.17061 -5.7973,0.238 -8.6784,0.36875 2.3959,0.82292 4.7917,1.64583 7.1876,2.46875 -1.1211,0.95297 -6.9647,3.42071 -4.4279,3.20042 2.3535,0.0579 5.6191,-1.05954 7.3996,-0.26324 0.9341,3.16301 -4.7412,-1.65183 -2.164,3.21714 1.4679,3.03997 -3.5068,1.96447 -5.2421,2.95831 -4.8454,0.55565 -0.3123,1.1113 2.0655,1.66695 3.3632,-0.0598 4.0313,1.60933 2.7439,4.53292 -1.4856,-0.13532 2.8255,4.72803 -0.1382,4.14235 -2.4953,0.0984 -4.9907,0.19677 -7.4861,0.29515 2.3958,0.82292 4.7916,1.64583 7.1874,2.46875 -1.1244,0.96388 -6.9551,3.44714 -4.4278,3.23207 3.997,-1.46206 2.6127,2.21309 -0.4911,0.94915 -4.1531,-0.92572 -3.5201,0.0492 -0.3749,2.02175 -0.2601,0.92834 -7.3317,2.35881 -2.6207,2.1917 2.0981,-0.6151 6.6261,0.92784 2.5886,1.89183 -3.7639,0.53988 -4.3481,1.08319 -0.2469,1.63157 3.2512,0.0153 4.7997,1.94718 0.6734,1.7018 -2.0205,0.19038 -7.5471,-0.57924 -3.2125,1.3512 4.0965,0.62281 1.0323,3.82354 0.9842,5.04376 3.2216,-0.46036 6.5222,-2.0787 9.584,-0.2009 4.042,3.00398 2.0381,-2.07748 3.276,-2.10272 3.1748,0.67778 3.4431,3.68439 0.5848,4.81714 -2.5618,0.8043 -4.9802,1.15965 -6.407,-1.58927 -1.7442,-1.587 -2.1269,4.53218 -5.1727,2.24204 -3.1417,-0.55139 -5.4576,-0.77408 -1.5694,1.47303 3.2215,1.51871 -4.2913,2.22533 -3.7259,2.98784 1.9117,0.70242 6.4379,-1.10344 6.3705,1.49772 -0.9592,4.09999 2.825,0.26936 4.6562,-0.29601 3.4177,0.88114 2.3397,1.94688 4.9733,2.00189 1.3313,0.042 6.0056,-1.01747 4.6203,2.52764 -0.8429,0.97405 -5.1186,0.30741 -6.4556,-0.81734 -1.3888,-2.55413 -2.888,-4.30973 -5.0433,-1.3128 -2.2353,2.67826 -5.9377,1.19354 -8.959,1.64127 -3.2903,-0.16556 2.7737,2.23237 3.7792,3.24404 -0.3375,1.74684 -4.0068,5.41665 0.2571,3.68474 2.6571,-1.29405 5.684,-0.27344 2.011,1.09183 -2.0492,-0.0988 -6.1023,-0.9871 -6.9146,-0.59869 1.5522,1.47216 6.3955,3.36782 2.0018,4.07481 -2.9583,1.05044 -5.5124,2.03211 -0.8589,1.78757 2.2056,0.35263 6.1441,-0.95676 4.9323,2.67332 -1.6581,0.96466 -5.0643,0.20208 -7.4005,0.49673 0.2068,0.75546 3.9587,2.48628 5.4629,3.59869 -0.7997,1.85915 -4.3003,5.66609 -0.125,3.9375 1.8433,2.99214 1.074,4.22753 -2.4168,3.63303 -1.9671,0.1677 -7.3412,-0.17979 -2.6604,0.9931 1.8767,0.88169 7.0076,1.454 2.6933,2.92431 -3.3641,1.65549 -4.0181,2.45327 0.1641,1.72041 1.9567,-0.81307 6.9956,-0.0843 4.4176,1.22427 -3.9615,-2.56968 -0.7262,2.4926 -1.6937,3.80917 -2.6576,0.56523 -5.3152,1.13047 -7.9728,1.69571 2.7812,0.625 5.5625,1.25 8.3437,1.875 -0.038,2.5243 -1.8218,3.48576 -0.6551,5.27267 2.4807,3.4835 -1.5979,2.54862 -3.9938,2.74723 -3.8702,-0.11511 -4.2174,0.29808 -0.3223,1.34741 3.593,0.71928 4.2076,1.72479 0.5198,3.1438 -4.3632,1.94254 -0.5994,1.31865 1.9893,1.06587 2.5041,-0.99927 5.6904,0.0393 4.1717,2.34087 -3.1201,-1.73174 -4.5073,-1.4452 -3.0079,2.2031 1.1269,2.9192 -3.8985,1.8382 -5.7018,2.8522 -4.305,0.5223 -3.0295,1.0816 0.5105,1.6558 1.8982,0.9463 6.7505,0.026 5.0405,3.2521 -1.8426,3.968 0.8436,2.8061 3.5501,1.6211 2.4268,-1.0745 4.8526,-1.9903 7.2633,-0.3535 3.1285,0.4302 4.1917,1.9751 2.7302,4.8827 2.9403,-0.8664 5.8853,-2.4932 8.8227,-2.8876 2.6633,0.9938 5.3265,1.9875 7.9898,2.9813 -0.1702,-2.2971 -2.5698,-6.0438 1.3191,-5.7017 1.9583,-0.5377 6.1038,-1.0616 6.7174,-1.6077 -3.0434,-0.6886 -6.0868,-1.3771 -9.1302,-2.0656 0.4596,-2.6615 1.9781,-5.3139 -0.5272,-5.4304 -1.9703,-3.14712 3.3429,-1.3577 5.1236,-1.9626 4.7743,0.2552 1.3163,-0.7404 -1.2708,-1.60361 -4.4547,-0.65511 -1.5696,-1.98613 0.9724,-3.28556 4.1147,-1.84804 -1.9745,-0.49683 -3.5294,-0.56728 -3.1366,1.18415 -3.9505,-0.59885 -3.8936,-3.4943 3.4616,2.1463 3.5308,0.33705 2.4536,-2.80882 0.9378,-1.51721 4.7098,-1.18191 6.726,-1.99428 3.3957,-0.53022 -3.2167,-1.13191 -4.5048,-1.69558 -4.1843,-0.27901 -0.5163,-2.34673 -1.6124,-3.78257 -0.2027,-1.91695 -1.8866,-3.39816 2.256,-2.93075 1.5249,-0.23455 7.8156,0.25151 3.4595,-0.87227 -1.485,-0.91894 -7.4216,-1.41466 -3.4372,-2.85358 2.7665,-1.46635 5.1876,-2.8234 0.6012,-1.96263 -2.1669,-0.20355 -6.1174,1.87317 -5.6295,-1.72452 3.8292,2.41917 0.9519,-2.56651 2.0083,-3.99246 1.8933,-0.87462 5.8833,-2.00112 6.459,-2.71748 -2.1055,-0.84379 -6.1588,0.57768 -6.4552,-2.37006 -2.2297,-3.4144 2.0312,-2.4968 4.2034,-2.97325 4.738,-0.0957 1.6208,-0.87434 -1.2111,-1.62817 -4.3534,-0.17961 -1.4599,-2.25778 0.3711,-4.05763 0.2215,-1.11245 -5.4023,2.04546 -4.0282,-2.1148 0.5724,-2.03414 4.4978,-2.06913 6.4196,-3.2987 -1.817,-0.45006 -5.1686,-0.71688 -7.5733,-1.09676 -1.9638,-0.32856 -2.5746,-5.77028 -4.7086,-3.05099 -0.9217,1.55326 -5.7186,3.55047 -4.9055,2.28464 3.3981,-0.96381 2.1673,-1.11774 2.0813,-1.81339 2.197,-1.77587 4.4753,-2.11051 6.8647,-0.47379 4.2243,2.78372 -1.245,-3.68895 2.5473,-2.78003 1.9575,-0.31731 7.38,-0.32107 2.6556,-1.24304 -3.9428,-0.35926 -3.4571,-1.87979 -0.6789,-4.00142 -1.6903,-0.30641 -5.0765,1.81935 -6.8063,0.51519 -1.8225,-3.09043 -3.2336,-2.20472 -4.4306,0.74959 -1.5843,-0.37147 -7.4482,-0.45247 -4.7367,-2.49963 1.5854,-2.04865 4.6246,-1.4254 6.8929,-2.21912 1.7754,0.0269 6.3105,3.43937 5.9694,0.87009 -1.5958,-3.21814 2.2486,-3.19368 4.2882,-4.24498 2.7889,-0.95464 -3.6842,-0.79684 -4.9041,-1.26999 -1.6651,-0.23683 -4.0264,-3.79563 -3.6699,-3.97107 2.5948,-0.0372 4.9994,2.457 4.1866,-0.91075 2.6838,-0.47752 5.1738,-1.15299 4.415,-1.47809 2.6973,-0.55148 -5.5792,-0.8934 -3.8386,-2.30521 3.6797,-2.85548 0.468,-2.00255 -2.2985,-1.38918 -3.9433,1.83985 -0.2963,-4.67373 -3.1169,-2.70707 -2.5125,-3.45131 1.6682,-2.45598 3.9929,-2.69369 3.8692,0.10352 4.2189,-0.3143 0.3229,-1.36106 -3.5922,-0.71794 -4.2082,-1.72547 -0.5243,-3.15141 4.364,-1.95405 0.5374,-1.29474 -2.0146,-1.04208 -2.7964,0.64755 -5.1177,0.68602 -4.6308,-2.87632 1.3798,-0.30908 4.5366,1.59073 2.51,-2.56086 -0.8597,-2.6647 4.0603,-1.6139 5.7412,-2.64534 4.7071,-0.55544 -1.0755,-1.11088 -2.8978,-1.66632 -3.6949,0.25319 -2.8793,-2.43564 -2.1686,-3.23964 0.3775,-2.08692 -3,-3.899 1.1655,-3.61082 1.232,-0.28214 7.6995,0.20375 5.0558,-0.64692 -1.2665,-0.93562 -7.2741,-1.3981 -4.9565,-2.69139 1.6634,-1.12693 6.8437,-3.3819 2.1351,-2.46499 -2.0692,-0.42311 -6.4178,2.08561 -6.3647,-1.06709 2.133,0.57531 2.3094,-1.30834 1.5229,-4.29888 2.1804,-1.121 4.8629,-1.94494 7.236,-2.95194 -2.1201,-0.84016 -6.0662,0.44932 -6.7824,-2.02802 -2.2128,-3.38396 1.1461,-3.07323 3.6811,-3.30888 4.351,-0.14642 3.0743,-0.7598 -0.4107,-1.55639 -4.0686,-0.22836 -2.7211,-1.92504 -0.3441,-3.90084 1.687,-2.08419 -5.1568,2.15531 -3.702,-1.96174 -0.258,-2.51347 4.1876,-2.26575 5.9633,-3.58539 0.1962,-0.65803 -4.6264,-0.69571 -6.3691,-1.11408 -2.2178,0.15816 -2.8338,-2.86727 -4.256,-4.13831 z m 0.125,10.25 c 4.3673,0.50911 2.0572,2.62813 0,0 z m 2.5313,9.34375 c 4.3753,0.97417 2.0533,2.0717 0,0 z m -4.75,6.875 c 3.7153,0.5158 3.0807,1.70743 0.1874,3.25 -1.4178,-0.91022 -7.5614,-2.29199 -3.2355,-2.6291 1.016,-0.20697 2.0321,-0.41393 3.0481,-0.6209 z m 2.1562,10.8125 c 4.1851,0.99408 2.3029,1.86673 -0.7911,2.71513 -3.912,-0.4867 -0.6857,-1.29544 0.7911,-2.71513 z m -0.9688,10.125 c 3.9676,0.69088 3.2737,2.0267 0.1435,3.69962 -1.5236,1.8362 -5.5471,-1.24077 -6.0382,-1.55873 1.9649,-0.71363 3.9298,-1.42726 5.8947,-2.14089 z m -4.6874,11.375 c 1.1825,3.9603 -4.9176,-0.95939 0,0 l 0,0 z m 5.6874,0.75 c 2.9162,1.02874 5.423,2.04662 1.0048,2.88061 -2.2424,1.42962 -6.2325,-0.44514 -2.2656,-1.96916 0.4203,-0.30381 0.8405,-0.60763 1.2608,-0.91145 z m 0.094,12.40625 c 4.6171,1.24453 -0.3687,0.84066 -2.4375,0.9375 0.8125,-0.3125 1.625,-0.625 2.4375,-0.9375 z m -1.6562,11.65625 c 3.7943,1.07032 -3.0436,4.03046 -2.1973,0.43167 0.088,-0.45893 1.6755,-0.23957 2.1973,-0.43167 z M -1999.0936,949 c 4.3871,1.40486 -0.6288,4.02211 0,0 z m -4.5312,1.5 c 4.784,0.85098 1.9677,2.58999 0,0 z m 10.7188,2.5625 c 0.1465,3.28544 -5.8382,1.22107 -4.4742,0.87365 1.4914,-0.29122 2.9828,-0.58243 4.4742,-0.87365 z m 3.5312,0.4375 c 4.784,0.85098 1.9677,2.58999 0,0 z m -8.9062,3.46875 c 2.9308,1.3897 -3.9174,0.92465 0,0 z m -2.5938,3.21875 c 3.8944,0.43988 2.2571,1.71477 0,0 z m 2.6562,0.125 c 5.3128,-0.34404 1.0752,2.56756 0,0 z m 11.3438,2.53125 c 4.3678,1.03532 2.0772,2.15055 0,0 z m -11.75,3.5625 c 1.8338,0.82917 -0.4695,2.74728 0,0 z m -7.2812,0.3125 c 3.7156,0.55257 3.0756,1.73618 0.1562,3.25 -1.4221,-0.91648 -7.5863,-2.33283 -3.2634,-2.64372 1.0357,-0.20209 2.0715,-0.40419 3.1072,-0.60628 z m 5.4374,1.84375 c 3.2991,-0.30436 -0.384,4.93619 0,0 z m 8.8126,1.15625 c 3.7156,0.55257 3.0756,1.73618 0.1562,3.25 -5.0829,-0.5601 -0.081,-2.73592 -0.8815,-2.89513 -3.8849,0.38567 -1.0873,0.062 0.7253,-0.35487 z m -5.375,3.4375 c 0.5028,0.4509 -0.6377,0.0936 0,0 z m -1.3438,3.96875 c 0.7213,-0.14161 -0.1179,0.55809 0,0 z m -5.4062,0.40625 c 4.2156,1.02487 1.9275,1.98471 -1.0313,2.78125 -3.7336,-0.78708 -0.2429,-1.37653 1.0313,-2.78125 z m 8.5937,2.21875 c 1.4409,3.76673 -3.8359,-0.76972 -2.7434,2.52853 -1.5678,-1.95461 1.039,-2.51109 2.7434,-2.52853 z m 5.6563,0.78125 c 4.1782,1.04104 2.2465,1.89352 -0.8356,2.71048 -3.9521,-0.46629 -0.6088,-1.31382 0.8356,-2.71048 z m -15.3126,7.125 c 3.6148,0.70485 3.7815,1.85675 0.4561,3.46139 -1.9516,2.22951 -4.4694,-0.79543 -6.7061,-1.21139 2.0833,-0.75 4.1667,-1.5 6.25,-2.25 z m 6.9688,0.90625 c 1.6955,0.42495 0.22,4.73467 -1.0379,4.2921 -2.1752,1.06376 -2.7657,-5.7965 0.059,-2.95127 2.1323,1.06907 1.0855,0.0597 0.979,-1.34083 z m 7.2812,2.09375 c 3.6148,0.70485 3.7815,1.85675 0.4561,3.46139 -1.5065,2.20142 -6.4648,-0.653 -2.2231,-1.44028 2.2472,-1.18527 -6.921,0.78507 -1.7039,-0.7772 1.157,-0.41464 2.3139,-0.82927 3.4709,-1.24391 z m -6.5312,4.75 c 0.3529,0.33238 -0.5163,0.0579 0,0 z m -1.3125,3.9375 c 0.5851,-0.0705 -0.135,0.45537 0,0 z m -5.4687,0.4375 c 5.1096,0.54715 -0.1241,2.74005 0.7882,2.90025 -0.1748,1.2452 -6.8518,0.1311 -2.7745,-1.4745 0.6621,-0.4752 1.3245,-0.9511 1.9863,-1.42575 z m 8.5937,2.21875 c 2.1907,3.5461 -3.075,3.1485 -1.5937,0.125 0.5312,-0.042 1.0625,-0.083 1.5937,-0.125 z m 5.6563,0.7812 c 2.9004,1.0446 5.4765,2.0791 1.0298,2.8948 -1.9129,1.5305 -6.6754,-0.304 -2.6821,-1.7086 0.5508,-0.3954 1.1015,-0.7908 1.6523,-1.1862 z"
           style="fill:#44aa00;fill-opacity:1;stroke:none" />
        <path
           inkscape:connector-curvature="0"
           id="path7392"
           d="m -1997.0938,824.3125 c -0.5155,2.59455 -7.3997,-0.13885 -3.8383,1.59989 1.3506,0.93474 -5.2004,1.35006 0.4658,1.24623 1.6072,1.41995 2.6199,0.48315 5.3509,0.63781 2.8055,1.19169 1.193,-1.84022 5.1507,-0.98762 -1.0136,-0.0747 -4.1235,-0.93224 -1.8188,-1.75987 -2.0143,0.19764 -3.6943,0.92596 -5.3103,-0.73644 z m 1.1563,3.625 c -2.2367,1.65895 -4.9534,1.25455 -7.5625,1.3125 4.6604,0.0906 0.519,3.25162 3.8547,2.32632 2.0329,-0.98182 5.436,0.85384 6.5828,0.11707 -0.8901,-2.28808 6.6304,-1.75988 1.1643,-2.1828 -1.7199,0.0832 -2.8514,-0.2788 -4.0393,-1.57309 z m -1.2187,3.9375 c -0.4771,2.67111 -7.204,0.0548 -4.6831,1.49584 3.8218,1.0468 -5.6377,1.64923 0.337,1.55481 2.745,0.11214 2.2715,1.99218 5.5901,0.51203 3.9945,1.76054 1.5398,-1.24932 5.3772,-0.79476 4.481,-0.30742 -5.7366,-0.24147 -0.6356,-1.9012 -1.1607,-0.26414 -4.4023,1.1396 -5.9856,-0.86672 z m 1.3124,3.625 c -2.5837,1.89699 -5.7103,1.4424 -8.7187,1.5 2.8209,0.42089 3.9131,1.77366 2.5019,2.91919 3.4827,-1.01157 4.9746,0.51242 0.662,0.1601 -4.7025,-0.67033 -0.9847,0.38399 -0.2201,1.26634 -3.7318,0.72942 -4.4542,1.13863 -0.2129,1.0197 4.3701,0.33073 -0.6748,1.91064 -2.7222,1.25133 -1.1749,0.41087 5.9764,1.12452 1.585,3.22709 4.4847,0.0895 0.6318,2.03306 -2.0524,1.30904 -4.0032,0.0915 6.0208,0.73344 2.3257,1.4422 -4.7372,1.30534 0.015,0.73025 2.341,0.63579 2.2793,0.77153 -2.2931,-0.10336 -0.7718,2.16761 -1.9543,0.34107 -7.5763,0.68214 -2.7411,1.0232 3.9216,-0.50124 2.4163,2.1586 2.9251,3.58725 -1.517,0.14347 -7.8895,-0.15979 -3.4198,0.53447 5.7151,0.17593 -1.3829,1.74439 -0.1606,1.88086 1.5242,-0.51716 7.38,-0.0149 4.0346,0.60235 -2.2912,-0.61761 -0.1417,3.19546 -4.4906,2.22673 -4.9037,0.35329 -0.1135,0.68324 2.1826,1.01919 4.5865,0.89575 -3.2798,2.76211 -0.5438,2.56848 4.5454,1.19854 -0.5667,1.53755 -2.5039,2.15913 1.9679,0.66208 6.6577,-1.32883 6.0938,1.80093 1.9773,-0.26666 4.6428,-1.8055 6.9527,-0.46394 2.906,1.13441 0.2607,-2.7078 4.7704,-1.58959 4.6992,-0.0544 -1.3228,-0.69054 -3.0043,-1.09115 4.413,-2.62522 0.3253,-0.0419 -0.4663,-2.92143 0.6226,-0.86421 6.897,-0.73413 5.464,-1.22164 -1.8637,-0.75093 -7.0208,0.48485 -4.8577,-2.69526 -3.4561,-0.78086 1.5603,-1.29776 3.4173,-1.0748 2.7078,-0.21187 -6.9227,-0.7676 -2.3499,-1.57109 4.6218,-1.29942 -1.1678,-0.4978 -3.0745,-0.47977 -2.3135,-2.04288 2.5783,-0.38189 1.1183,-2.90315 1.9543,-0.34107 7.5763,-0.68214 2.7411,-1.0232 -3.4494,0.20365 -2.4097,-1.19774 -2.9299,-2.14096 -1.1619,-1.71407 5.3617,-0.25573 4.9413,-0.92793 -3.0812,-0.49259 -5.7849,-1.01076 -1.2792,-2.0173 1.0947,-1.00212 -5.0999,1.21835 -5.2558,-0.77352 1.8451,0.26289 1.311,-3.03406 5.0364,-2.52398 1.8225,-0.8486 -4.6638,0.67729 -4.2239,-2.13227 1.4966,-0.22413 7.8536,-0.19281 3.3504,-0.73228 -5.5891,0.30701 1.9963,-2.69925 -2.4219,-1.7343 -3.5734,-1.22527 3.4822,-2.10288 3.0364,-2.31371 -2.5218,-0.34875 -5.3076,0.32558 -7.0587,-1.96971 z m 0.031,4.09375 c 2.6246,0.14936 2.3453,1.2625 0,0 z m 1.7187,3.78125 c 2.4402,0.27699 2.4109,1.02419 0,0 z m -3.1562,2.78125 c 4.4214,0.32422 -1.034,2.01529 -2.6613,0.59104 -2.1367,-0.28777 2.4201,-0.44173 2.6613,-0.59104 z m 1.4688,4.34375 c 5.2716,0.40096 -3.1877,1.76442 -1.1836,0.51543 0.3945,-0.17181 0.7891,-0.34362 1.1836,-0.51543 z m -0.6876,4.09375 c 4.592,0.003 -0.7855,2.62529 -2.6464,1.29717 -4.0037,-0.32052 1.9099,-0.96562 2.6464,-1.29717 z m 0.6876,4.875 c 4.7101,0.38835 0.5314,1.73188 -1.8947,1.18338 -1.7006,-0.0155 1.6672,-0.91677 1.8947,-1.18338 z m -0.3126,4.9375 c 2.0027,0.48207 6.6575,1.09501 2.0313,1.25 -0.6771,-0.41667 -1.3542,-0.83333 -2.0313,-1.25 z m -1.125,0.0625 c -0.6326,2.2999 -7.2943,0.83762 -2.7716,0.59779 0.9239,-0.19926 1.8477,-0.39853 2.7716,-0.59779 z m 2.1876,4.8125 c -2.4472,1.51139 -5.0855,2.18628 -7.9554,1.84825 -4.7564,-0.35663 -1.505,0.65041 1.1789,1.5608 -2.2353,2.47703 -0.5002,2.28797 2.8622,1.68872 2.7523,-0.65347 5.424,0.59524 8.133,0.96473 -1.7746,-3.27942 2.8219,-2.48702 4.763,-3.39173 -0.2581,-0.3638 -4.6977,-0.39834 -6.513,-0.63952 -0.8229,-0.67708 -1.6458,-1.35417 -2.4687,-2.03125 z m -1.8438,5.6875 c -1.5307,2.68013 -4.3909,1.65522 -6.9212,1.54965 -4.3604,-0.50079 5.6112,1.93226 0.1698,2.04555 -4.6762,0.81236 -1.777,0.85524 1.335,0.8765 3.1937,-0.50432 1.4948,3.53467 5.233,1.0453 1.7592,-1.52202 6.3288,1.85415 6.2265,0.0576 -1.5522,-2.51022 3.9643,-0.94488 5.5479,-1.64707 0.197,-0.57707 -7.1479,-0.32739 -4.36,-1.67915 4.1038,-2.03557 -1.8132,-0.53689 -3.478,-0.53791 -1.4425,0.42283 -2.507,-1.21946 -3.753,-1.71051 z m 1.875,5.28125 c -2.6653,1.5168 -5.4377,2.56423 -8.5491,2.1249 -3.2378,-0.11438 -5.383,-0.0378 -1.0525,1.17021 5.0014,0.0555 -2.7783,4.1653 1.9568,2.94106 2.5386,-0.92093 6.0155,0.10245 1.8519,0.58185 -1.4487,0.0795 -7.0353,-0.87516 -5.8618,-0.14029 3.4929,1.15919 4.3191,2.07261 0.1492,2.52556 -4.8494,0.84027 -0.1002,0.68317 2.2502,0.77533 3.2207,-1.1611 4.4345,2.67702 0.601,1.77057 -1.9825,0.12504 -7.464,-0.34807 -2.8103,0.91144 4.225,0.30474 2.4333,2.52831 1.3728,3.75908 3.4213,-0.90747 3.7308,3.2509 -0.1343,1.90332 -1.9726,0.10904 -7.534,-0.11573 -2.7349,0.6232 2.4969,0.51536 6.5001,0.9371 1.8337,1.89775 -4.6463,1.2584 -0.9816,0.90003 1.7065,0.73164 2.7112,-1.11568 6.1082,1.48091 1.7006,0.41769 0.3854,1.61962 -0.1291,3.53859 -3.6693,3.07104 -3.7607,0.33415 -4.6637,0.6737 -0.3805,1.02305 2.2984,-0.11472 6.1728,0.86619 3.1762,2.66255 2.2378,2.47378 0.8075,2.95718 -2.1688,2.59921 -2.535,0.0494 -6.8328,-0.0716 -1.9858,0.69131 3.1358,0.4866 5.4834,1.02286 1.0813,1.98435 -4.708,1.29405 0.4014,0.63459 2.4994,0.57435 2.4921,-1.56527 5.8976,2.24639 1.8798,1.04688 -4.3805,-2.13744 1.2846,3.84415 -3.0327,2.83351 -1.9977,0.32821 -6.2001,0.64863 -6.8346,0.98165 2.9475,0.39832 5.895,0.79663 8.8425,1.19494 -2.3283,3.7005 0.4952,2.88823 3.3258,2.06974 3.9828,-1.65879 7.9508,0.34933 11.9242,1.02401 -2.3441,-3.32243 0.5197,-3.47345 3.3907,-3.62011 2.5088,-0.33495 6.8412,-0.66648 1.9445,-1.01533 -1.719,-0.83599 -6.8937,0.40197 -5.9685,-2.021 2.3482,-2.0131 -4.259,-2.88842 0.5012,-3.10765 1.3438,-0.16906 7.802,0.13571 5.2374,-0.39546 -1.278,-0.59522 -7.8479,-0.84569 -4.2406,-1.75917 3.0771,-0.96815 5.2206,-1.75235 0.6941,-1.22218 -2.1987,-0.22421 -5.8897,1.57621 -5.6525,-1.95285 4.7284,2.31381 0.93,-1.96368 3.8808,-2.15076 1.3776,-0.33896 7.7963,-0.6671 5.2718,-1.01443 -1.913,-0.74056 -6.4735,0.12723 -6.5936,-1.70254 2.4948,-0.6845 -2.6461,-3.31662 1.4651,-2.83403 1.3259,-0.17023 7.7931,0.13798 5.2063,-0.39638 -1.2636,-0.59308 -7.8349,-0.85157 -4.2077,-1.75296 3.0922,-0.95975 5.1671,-1.72068 0.6611,-1.19541 -1.4977,0.36015 -7.046,0.33677 -4.5967,-0.85247 2.4027,0.62332 -0.3469,-4.10064 3.9904,-3.16456 3.7593,-0.67927 4.3492,-1.11955 0.1711,-1.20031 -2.4211,1.1548 -5.4203,-3.5038 -1.6351,-2.68812 1.2219,-0.23435 7.9743,-0.17315 4.1418,-0.6776 -1.5321,-0.6048 -7.5604,-0.34142 -3.5406,-2.0183 4.3544,-2.61335 -3.4893,1.24911 -2.6513,-2.2107 0.9737,-1.04912 5.8223,-1.29808 6.0267,-1.86096 -3.3383,-0.6397 -7.4197,0.56177 -9.8112,-2.4235 l -0.3173,-0.2615 -0.3054,-0.25172 2e-4,10e-5 z m 0.062,6 c 4.2075,0.19554 2.5477,1.67456 0,0 z m 2.4375,5.5 c 2.5824,0.26869 3.9977,1.56545 0,0 z m -4.6562,4 c 4.5436,-0.1133 1.8234,2.20901 -1.0392,1.60196 -3.688,-0.71729 -4.5609,-1.24984 -0.2861,-1.44458 0.4418,-0.0525 0.8835,-0.10492 1.3253,-0.15738 z m 2.0624,6.34375 c 4.6159,0.57503 1.3439,1.4333 -1.4012,1.53507 -3.4521,-0.0359 0.7014,-1.00445 1.4012,-1.53507 z m -1.0312,5.9375 c 4.2976,0.376 2.8206,1.29123 -0.4043,2.36968 -1.2276,0.35218 -7.7171,-1.16036 -4.0817,-1.40348 1.4953,-0.32206 2.9907,-0.64413 4.486,-0.9662 z m 0.9375,7.09375 c 3.1645,0.6317 5.2165,1.24284 0.7866,1.73418 -2.5027,0.90102 -6.169,-0.41854 -1.7324,-1.33116 0.3152,-0.13434 0.6305,-0.26868 0.9458,-0.40302 z m -1.8125,7.90625 c -1.6738,2.25637 -3.7844,3.30353 -6.5665,2.49159 -1.6102,0.0619 -7.9686,-1.06529 -3.8071,0.44218 3.6067,1.14985 3.8278,1.98097 -0.1018,2.42132 -3.7395,0.72253 -4.4279,1.12807 -0.2003,1.02287 1.8808,0.67105 6.5257,-1.35071 5.8632,1.79797 -0.1998,2.74991 4.1373,-0.70996 5.8758,-0.61308 2.7118,-0.22344 5.4827,1.176 8.2179,1.5934 -2.7256,-3.23549 0.2189,-3.18926 3.1067,-3.17586 2.5204,-0.17498 6.9184,-0.24818 2.0278,-0.82494 -1.5846,-0.61796 -7.6922,-0.36681 -3.7305,-2.05051 4.393,-2.12804 0.034,-1.21404 -2.462,-0.94758 -2.6691,0.68241 -5.1274,0.44093 -7.1958,-1.50844 -0.3424,-0.21631 -0.6849,-0.43261 -1.0274,-0.64892 z m 2.6562,8.3125 c -3.152,1.41424 -6.1345,3.56706 -9.7628,2.90557 -2.5478,0.021 -5.0956,0.0421 -7.6434,0.0631 2.4063,0.875 4.8125,1.75 7.2188,2.625 -2.2431,2.12213 -4.2243,4.11286 0.1738,2.9031 4.0583,-0.54747 8.1223,-1.23065 12.0994,0.1394 2.4861,0.52147 5.9085,1.97177 3.9763,-1.88994 0.8082,-1.63105 4.6864,-1.31168 6.6799,-2.1897 4.5602,-0.73655 -1.6193,-0.64383 -3.2277,-0.90407 -2.7824,-0.35118 -5.962,0.27762 -7.8533,-2.27285 -0.5537,-0.45985 -1.1074,-0.91993 -1.661,-1.37964 z m -2.9374,9 c -1.7411,2.0121 -3.58,3.75429 -6.4062,2.76851 -1.6389,0.0516 -7.0965,-0.84789 -6.1548,-0.15365 1.3811,0.94549 7.4138,2.31485 3.0933,2.74079 -1.231,0.46109 -7.6323,1.47239 -4.9554,1.51764 3.0681,0.0735 6.1362,0.14697 9.2043,0.22046 -1.0695,4.02316 1.6815,2.81846 4.3092,1.78256 3.5332,-1.90065 7.2225,0.55044 10.8408,1.02198 -1.6046,-2.38271 -1.2089,-3.83413 2.3546,-3.3037 1.3721,-0.23841 7.816,-0.20448 5.2807,-0.65271 -2.6055,-0.45979 -5.211,-0.91959 -7.8165,-1.37938 1.1933,-0.99297 6.9026,-3.56284 2.52,-2.60884 -2.7794,0.008 -5.8538,1.31729 -8.4353,0.45295 -1.2783,-0.8022 -2.5565,-1.60441 -3.8347,-2.40661 z m 2.9687,8.3125 c -3.4774,1.45088 -6.706,3.98968 -10.6691,3.31675 -3.1103,0.0298 -6.2206,0.0597 -9.3309,0.0895 2.7708,1.01042 5.5417,2.02083 8.3125,3.03125 -1.261,1.61177 -5.5999,4.77491 -1.1128,3.48943 2.5063,-0.29856 5.0127,-0.59712 7.519,-0.89568 -1.4823,2.67946 -4.3511,1.54839 -6.8279,1.49487 -2.474,-0.17537 -4.9481,-0.35075 -7.4221,-0.52612 2.3646,1.05208 4.7292,2.10417 7.0938,3.15625 -3.3021,0.79167 -6.6041,1.58333 -9.9062,2.375 4.1979,0.10417 8.3958,0.20833 12.5937,0.3125 1.2027,3.72335 -2.5652,2.51508 -4.9339,2.69498 -1.8775,0.12285 -6.0932,-0.16147 -6.6177,0.19699 2.8713,1.05683 5.7427,2.11365 8.6141,3.17048 -0.9199,1.42775 -6.0005,4.93537 -1.8335,3.82028 1.8836,-1.46399 5.147,4.1789 1.9704,3.08946 -3.8894,0.0822 -7.7787,0.16434 -11.6681,0.24651 3.6562,0.77083 7.3125,1.54167 10.9687,2.3125 -2.8958,1.01042 -5.7917,2.02083 -8.6875,3.03125 4.3854,-0.22917 8.7708,-0.45833 13.1562,-0.6875 2.2822,3.93713 -4.5705,-0.71488 -3.9152,1.526 2.0506,3.16916 0.4001,4.05662 -2.8813,3.93863 -2.9116,0.37637 -5.8231,0.75275 -8.7347,1.12912 4.2604,0.58333 8.5208,1.16667 12.7812,1.75 -0.3541,2.85647 -2.9185,3.14873 -0.8008,5.21308 3.0134,3.12808 -2.1359,1.75475 -4.1365,2.11783 -2.6875,0.0564 -5.3749,0.11276 -8.0623,0.16914 3.6875,0.78125 7.3751,1.5625 11.0626,2.34375 -2.9167,1.0104 -5.8333,2.0209 -8.75,3.0313 4.4062,-0.2292 8.8125,-0.4584 13.2187,-0.6876 2.0779,3.8973 -1.8372,1.9391 -4.1569,1.5397 -3.8206,-1.5912 1.7121,4.3686 -0.6898,4.5354 -4.6032,0.6 -9.2064,1.1999 -13.8096,1.7999 4.8646,0.6563 9.7292,1.3125 14.5938,1.9688 -0.5098,2.0426 -3.3992,6.1487 0.6293,4.2559 3.7657,-0.5781 7.534,-2.1234 11.2983,-2.1079 4.0241,0.8986 8.0483,1.7972 12.0724,2.6958 -0.4709,-2.1443 -3.3022,-5.7422 0.7595,-5.095 4.0593,-0.5204 8.1187,-1.0409 12.178,-1.5613 -4.8646,-0.6667 -9.7291,-1.3333 -14.5937,-2 0.3259,-1.8318 3.4087,-6.0745 -0.375,-4.3125 -3.1447,-3.1752 1.185,-2.2503 3.5267,-2.416 2.8244,-0.059 5.6489,-0.1185 8.4733,-0.1778 -3.6875,-0.7812 -7.3751,-1.5625 -11.0626,-2.3437 2.9167,-1.02083 5.8333,-2.04167 8.75,-3.0625 -4.4062,0.23958 -8.8125,0.47917 -13.2187,0.71875 -1.7314,-3.57631 -0.039,-3.81338 3.1376,-2.60278 2.7485,0.64123 -2.9559,-5.33788 1.557,-4.22753 3.6018,-0.47323 7.2036,-0.94646 10.8054,-1.41969 -4.2708,-0.57292 -8.5417,-1.14583 -12.8125,-1.71875 1.0072,-2.32486 2.3048,-1.98873 1.1603,-4.10218 -3.7084,-1.53358 1.2506,-1.86679 3.3039,-1.62679 2.8036,-0.0591 5.6072,-0.11819 8.4108,-0.17728 -3.6667,-0.77083 -7.3333,-1.54167 -11,-2.3125 2.8958,-1.01042 5.7917,-2.02083 8.6875,-3.03125 -4.375,0.22917 -8.75,0.45833 -13.125,0.6875 -2.5873,-4.20003 4.3583,0.73472 2.5007,-2.92103 -1.948,-3.38647 1.9248,-3.08706 4.239,-3.77457 1.3089,-0.49836 7.6694,-1.39011 5.0929,-1.58591 -2.8609,-0.21866 -5.7217,-0.43733 -8.5826,-0.65599 -1.9818,-2.83443 -1.9245,-4.48455 1.9106,-3.94049 2.8736,-0.19692 5.7471,-0.39384 8.6207,-0.59076 -3.6354,-0.64583 -7.2709,-1.29167 -10.9063,-1.9375 1.0393,-0.95858 6.8441,-3.57583 4.243,-3.26738 -2.2977,-0.0263 -6.0246,1.92708 -5.6262,-1.83423 0.8832,-1.57329 4.6875,-1.28932 6.6881,-2.15214 4.3269,-0.72282 2.9031,-1.00908 -0.6538,-1.13341 -3.0008,-0.53108 -6.4648,0.0883 -9.1622,-1.19656 -1.2881,-1.05534 -2.576,-2.11136 -3.8643,-3.16628 z m 0.062,9.4375 c 2.2008,0.47922 6.7382,1.05371 2,1.25 -0.6667,-0.41667 -1.3333,-0.83333 -2,-1.25 z m 3.8438,8.6875 c 2.4921,0.59031 6.3987,1.40593 1.5686,0.82989 -0.697,0.13275 -1.0585,-0.49503 -1.5686,-0.82989 z m -7.3126,6.3125 c 1.932,0.54985 7.2026,0.75691 2.6395,1.97364 -2.8756,2.06941 -6.0927,-0.32954 -9.1566,-0.72423 -3.0333,-0.67081 3.5636,-0.67556 4.8002,-1.05104 0.5723,-0.0661 1.1446,-0.13225 1.7169,-0.19837 z m 3.25,10 c 2.4559,0.63246 6.6531,1.29614 1.8437,1.79832 -1.3242,0.77434 -6.7425,0.8725 -5.4952,-0.21859 1.2172,-0.52658 2.4343,-1.05315 3.6515,-1.57973 z m -1.5937,9.34375 c 1.5021,0.63358 7.6525,0.82959 3.4251,2.00252 -2.4358,0.80682 -4.7657,2.98418 -7.3759,1.53558 -1.1674,-0.59616 -7.7663,-1.2929 -3.9741,-1.79723 2.6416,-0.58029 5.2833,-1.16058 7.9249,-1.74087 z m 1.4375,11.1875 c 1.3065,0.6225 7.6062,1.3384 5.0763,1.889 -3.4177,0.6679 -6.8369,2.1153 -10.2506,0.6491 -0.2461,-0.5955 3.8971,-1.7772 5.1743,-2.5381 z"
           style="fill:#338000;fill-opacity:1;stroke:none" />
      </g>
    </g>
  </g>
</svg>
